<svg width="434" height="550" viewBox="0 0 434 550" fill="none" xmlns="http://www.w3.org/2000/svg">
<g clip-path="url(#clip0)">
<path d="M210.253 86.2906C210.253 86.2906 207.859 101.256 201.741 107.363C201.63 107.474 201.541 107.563 201.431 107.674C200.322 108.562 198.35 108.451 197.064 108.251C196.687 108.184 196.399 108.14 196.177 108.073C196.155 108.073 196.111 108.051 196.089 108.051C196.044 108.051 196 108.029 195.978 108.029C195.956 108.029 195.933 108.007 195.889 108.007H195.867H195.845H195.823C195.601 107.94 195.379 107.918 195.158 107.896H195.135C194.67 107.896 194.227 108.007 193.872 108.184C193.85 108.184 193.828 108.206 193.805 108.206C193.429 108.384 193.118 108.628 192.919 108.806C192.874 108.85 192.852 108.873 192.808 108.895C192.741 108.961 192.697 109.006 192.675 109.05C192.675 109.05 192.675 109.05 192.653 109.072V109.095C190.17 111.693 186.047 117.022 186.734 123.483H166.674C166.674 123.483 170.11 119.353 168.691 110.915L163.016 67.6166L170.708 44.6793L192.608 40.416L203.049 46.8109C203.071 46.7887 211.871 57.247 210.253 86.2906Z" fill="#FBC994"/>
<path d="M192.941 108.806C192.919 108.85 192.875 108.873 192.852 108.917C192.808 108.961 192.764 109.006 192.697 109.072C192.719 109.05 192.764 108.983 192.83 108.917C192.852 108.873 192.897 108.828 192.941 108.806Z" fill="#FBC994"/>
<path d="M197.064 108.251H197.02C196.732 108.207 196.443 108.14 196.155 108.074C196.399 108.118 196.709 108.185 197.064 108.251Z" fill="#FBC994"/>
<path d="M173.878 53.8056C173.878 53.8056 166.474 62.643 168.403 74.2116C168.403 74.2116 170.287 88.1116 174.033 93.9958C174.033 93.9958 182.944 107.607 168.713 110.893C168.713 110.893 152.864 115.756 144.397 110.893C144.397 110.893 157.253 108.518 155.945 96.5715C155.945 96.5715 154.904 92.175 153.995 86.9792C153.906 86.6017 150.648 73.7009 150.958 63.9087C150.958 63.8421 150.958 63.7977 150.958 63.731C151.091 57.5582 153.396 49.3647 162.218 41.5931C162.218 41.5931 189.993 19.0999 203.049 46.7668C203.071 46.789 184.917 38.6843 173.878 53.8056Z" fill="#874F2A"/>
<path d="M192.941 108.806C192.919 108.85 192.875 108.873 192.852 108.917C192.808 108.961 192.764 109.006 192.697 109.072C192.719 109.05 192.764 108.983 192.83 108.917C192.852 108.873 192.897 108.828 192.941 108.806Z" fill="#FBC994"/>
<path d="M197.064 108.251H197.02C196.732 108.207 196.443 108.14 196.155 108.074C196.399 108.118 196.709 108.185 197.064 108.251Z" fill="#FBC994"/>
<path d="M201.741 107.363C201.652 107.474 201.541 107.584 201.431 107.673C201.541 107.562 201.63 107.474 201.741 107.363Z" fill="#FBC994"/>
<path d="M184.784 64.3083C184.784 64.3083 192.697 59.6676 200.965 60.8888C200.965 60.8888 200.677 61.6882 200.965 62.0657C200.965 62.0657 193.274 61.1553 184.784 64.3083Z" fill="#874F2A"/>
<path d="M170.797 51.1634C170.797 51.1634 178.777 43.2808 183.099 41.6599C183.099 41.6599 184.185 41.46 184.385 40.9715C184.385 40.9715 184.562 40.2388 183.343 40.0834C183.343 40.0834 180.195 39.6837 179.087 40.4386C179.087 40.4386 178.134 41.0382 177.846 40.6163C177.846 40.6163 177.469 40.372 177.934 40.1056L178.289 39.8391C178.289 39.8391 178.444 39.6837 178.4 39.6171C178.4 39.6171 178.333 39.4838 178.178 39.5949C178.178 39.5949 176.671 40.6829 175.385 40.15C175.385 40.15 179.619 37.8185 182.589 37.6187C182.589 37.6187 169.134 36.353 164.945 45.1238C164.945 45.1238 164.79 45.3014 164.923 45.368C164.923 45.368 165.056 45.5013 165.211 45.3458C165.211 45.3458 167.472 43.2364 168.868 42.9255C168.868 42.9255 169.689 42.5925 169.955 42.9255C169.955 42.9255 170.176 43.2586 169.467 43.8359C169.467 43.8359 165.521 47.7217 165.034 49.7867C165.034 49.7867 172.282 43.9025 174.609 43.3252C174.609 43.3252 176.139 42.1706 177.07 42.9033C177.07 42.9033 177.691 43.6583 176.693 44.7241C176.693 44.6797 172.26 48.3879 170.797 51.1634Z" fill="#96674B"/>
<path d="M195.158 107.896H195.136C194.67 107.896 194.227 108.007 193.872 108.185C193.85 108.185 193.828 108.207 193.806 108.207C186.69 106.275 183.653 103.655 183.387 103.411C185.804 105.209 188.863 106.342 191.345 107.052H191.367C192.963 107.474 194.338 107.741 195.158 107.896Z" fill="#F0BF8A"/>
<path d="M195.136 107.896C194.67 107.896 194.227 108.007 193.872 108.185C193.85 108.185 193.828 108.207 193.806 108.207C193.429 108.384 193.118 108.629 192.919 108.806C192.897 108.851 192.852 108.873 192.83 108.917C189.926 107.652 184.961 105.254 182.301 102.434C182.301 102.434 185.737 105.342 191.345 107.03H191.367C192.542 107.385 193.783 107.674 195.136 107.896Z" fill="#EFBE8A"/>
<path d="M273.361 417.827C272.274 412.476 271.565 407.235 271.122 402.328C271.233 403.372 271.964 409.633 273.361 417.827Z" fill="#FBC994"/>
<path d="M361.006 531.913C334.65 538.264 322.392 532.824 322.392 532.824C303.241 524.408 300.957 528.871 300.957 528.871C296.391 533.734 292.113 531.603 292.113 531.603C284.843 528.005 291.071 516.681 291.071 516.681C291.293 515.726 291.47 514.727 291.625 513.684C294.33 517.703 300.78 522.832 316.008 522.321C316.008 522.321 328.466 521.477 334.761 516.193C337.31 517.458 339.283 518.191 340.768 518.613C340.768 518.613 340.768 518.613 340.79 518.613C341.012 518.635 343.495 518.968 344.802 518.968C354.733 518.613 363.201 525.208 363.201 525.208C367.944 531.136 361.006 531.913 361.006 531.913Z" fill="#966A59"/>
<path d="M334.739 516.193C328.466 521.478 315.986 522.321 315.986 522.321C300.758 522.854 294.308 517.725 291.603 513.684C294.396 493.811 284.421 460.038 284.421 460.038C283.889 458.217 273.338 417.827 273.338 417.827C271.964 409.633 271.21 403.372 271.1 402.328L271.077 402.173C269.481 384.698 271.166 371.419 271.166 371.419C271.986 363.204 271.166 360.162 271.166 360.162C270.9 356.01 260.814 355.632 253.743 355.854C249.908 355.987 246.96 356.298 246.96 356.298C183.188 361.094 178.156 357.408 178.156 357.408C144.707 348.771 155.347 310.823 155.347 310.823C169.533 255.201 161.132 210.637 161.132 210.637C151.202 169.425 163.061 135.718 163.061 135.718C163.482 122.174 166.718 123.462 166.718 123.462H186.779C185.205 146.332 196.399 155.503 196.399 155.503C201.719 160.676 215.152 188.388 215.152 188.388C219.873 204.552 206.241 213.967 206.241 213.967C205.221 216.92 204.401 219.718 203.758 222.338C199.214 240.59 202.583 250.916 202.583 250.916C204.268 256.333 210.386 300.854 210.386 300.854C211.361 306.871 215.817 306.738 215.817 306.738C221.491 307.693 227.786 308.825 234.281 310.046C234.725 310.135 235.168 310.224 235.611 310.29C235.988 310.357 236.387 310.446 236.786 310.512C264.693 315.775 296.635 322.37 296.635 322.37C314.324 326.833 305.546 379.147 305.546 379.147C303.329 398.909 304.948 450.867 304.948 450.867C305.901 487.216 316.252 503.914 316.252 503.914C324.41 510.287 330.417 514.017 334.739 516.193Z" fill="#FBC994"/>
<path d="M236.764 310.534C236.365 310.467 235.988 310.378 235.589 310.312C235.988 310.378 236.365 310.445 236.764 310.534Z" fill="#FBC994"/>
<path d="M235.568 357.097C235.478 357.097 235.478 357.097 235.478 357.097C235.478 357.12 235.478 357.12 235.568 357.097Z" fill="#FBC994"/>
<path d="M239.424 356.831C239.202 356.853 239.003 356.853 238.803 356.875C239.003 356.853 239.202 356.853 239.424 356.831Z" fill="#FBC994"/>
<path d="M242.461 356.608C241.862 356.653 241.308 356.697 240.798 356.719C241.308 356.697 241.862 356.653 242.461 356.608Z" fill="#FBC994"/>
<path d="M244.7 356.453C244.256 356.475 243.857 356.52 243.458 356.542C243.835 356.52 244.256 356.497 244.7 356.453Z" fill="#FBC994"/>
<path d="M268.24 342.375C268.173 343.308 268.129 344.218 268.107 345.129C268.129 344.218 268.173 343.308 268.24 342.375Z" fill="#FBC994"/>
<path d="M272.23 312.244C272.23 312.267 272.23 312.289 272.23 312.289C272.23 312.311 272.208 312.333 272.208 312.378C272.208 312.422 272.186 312.489 272.164 312.555V312.578C272.164 312.622 272.141 312.666 272.141 312.689C272.097 312.888 272.053 313.133 272.008 313.444C271.986 313.532 271.986 313.621 271.964 313.732C271.942 313.799 271.942 313.865 271.92 313.932C271.898 314.065 271.875 314.176 271.853 314.309C271.809 314.598 271.742 314.931 271.676 315.286C271.632 315.531 271.587 315.797 271.543 316.064C271.476 316.441 271.41 316.841 271.343 317.263V317.285C271.321 317.352 271.321 317.44 271.299 317.507C271.277 317.662 271.255 317.818 271.21 317.973C271.188 318.062 271.188 318.129 271.166 318.217C271.122 318.44 271.1 318.662 271.055 318.884C271.033 319.061 270.989 319.217 270.967 319.394C270.944 319.505 270.922 319.616 270.9 319.75C270.878 319.927 270.834 320.083 270.811 320.26C270.723 320.749 270.656 321.26 270.568 321.77C270.545 321.948 270.523 322.103 270.479 322.281C270.457 322.481 270.412 322.703 270.39 322.925C270.346 323.169 270.324 323.391 270.279 323.658C270.169 324.413 270.058 325.212 269.947 326.011C269.858 326.566 269.792 327.144 269.703 327.743C269.681 327.943 269.659 328.121 269.637 328.321C269.592 328.631 269.548 328.942 269.504 329.275C269.371 330.297 269.238 331.34 269.127 332.406C269.105 332.628 269.082 332.85 269.038 333.072C269.016 333.25 268.994 333.428 268.972 333.605C268.794 335.226 268.617 336.869 268.484 338.49C268.484 338.512 268.484 338.535 268.484 338.557C268.462 338.868 268.417 339.179 268.395 339.489C268.351 340.089 268.307 340.688 268.262 341.288C268.24 341.621 268.218 341.954 268.196 342.265C268.196 342.309 268.196 342.332 268.196 342.376C268.129 343.309 268.085 344.219 268.063 345.129C268.041 345.44 268.041 345.773 268.018 346.084C268.018 346.328 267.996 346.573 267.996 346.795C267.996 347.039 267.974 347.261 267.974 347.505C267.974 347.75 267.974 347.972 267.974 348.216C267.974 348.793 267.974 349.37 267.974 349.948C267.974 350.17 267.974 350.392 267.996 350.614C267.996 350.725 267.996 350.836 267.996 350.947C267.996 351.28 268.018 351.613 268.041 351.946C268.063 352.257 268.063 352.568 268.107 352.857C268.107 352.968 268.129 353.056 268.129 353.167C268.129 353.278 268.151 353.367 268.151 353.478C268.151 353.567 268.174 353.678 268.174 353.767C268.196 353.967 268.218 354.167 268.24 354.344C268.284 354.722 268.329 355.099 268.373 355.454C268.373 355.543 268.395 355.632 268.417 355.721C268.44 355.81 268.44 355.899 268.462 355.987C268.484 356.076 268.484 356.165 268.506 356.254C268.573 356.676 268.661 357.075 268.75 357.453C268.816 357.675 268.861 357.897 268.927 358.119C268.927 358.119 258.398 355.499 246.916 356.32C246.739 356.343 246.561 356.343 246.384 356.365C245.963 356.387 245.564 356.431 245.187 356.454C245.01 356.476 244.832 356.476 244.655 356.498C244.212 356.52 243.813 356.565 243.414 356.587C243.325 356.587 243.259 356.609 243.17 356.609C243.081 356.609 242.993 356.631 242.882 356.631C242.727 356.631 242.571 356.654 242.416 356.654C241.818 356.698 241.264 356.742 240.754 356.765C240.621 356.765 240.51 356.787 240.377 356.787C240.244 356.787 240.133 356.809 240.022 356.809C239.912 356.809 239.801 356.831 239.69 356.831C239.668 356.831 239.646 356.831 239.623 356.831C239.535 356.831 239.468 356.853 239.402 356.853C239.18 356.876 238.981 356.876 238.781 356.898H238.759C238.493 356.92 238.249 356.942 238.027 356.942C237.961 356.942 237.917 356.942 237.85 356.964C237.739 356.964 237.651 356.987 237.562 356.987C237.318 357.009 237.096 357.009 236.897 357.031C236.808 357.031 236.72 357.031 236.653 357.053H236.631C236.564 357.053 236.498 357.053 236.431 357.075C236.343 357.075 236.254 357.075 236.188 357.098C236.099 357.098 236.01 357.098 235.944 357.12C235.922 357.12 235.922 357.12 235.899 357.12C235.877 357.12 235.877 357.12 235.855 357.12C235.833 357.12 235.833 357.12 235.811 357.12C235.789 357.12 235.766 357.12 235.744 357.12H235.722C235.7 357.12 235.678 357.12 235.656 357.12H235.633C235.589 357.12 235.567 357.12 235.523 357.12C235.434 357.12 235.434 357.12 235.434 357.12C182.523 360.65 178.112 357.408 178.112 357.408C144.663 348.771 155.303 310.823 155.303 310.823C169.489 255.201 161.088 210.637 161.088 210.637C151.158 169.425 163.017 135.718 163.017 135.718C163.438 122.174 166.674 123.462 166.674 123.462H186.734C185.161 146.31 196.355 155.503 196.355 155.503C201.675 160.676 215.107 188.388 215.107 188.388C219.829 204.553 206.197 213.967 206.197 213.967C205.177 216.92 204.357 219.718 203.714 222.338C199.17 240.59 202.539 250.916 202.539 250.916C203.67 254.535 206.773 275.629 208.701 289.218C208.701 289.218 208.701 289.241 208.701 289.285C208.723 289.529 208.834 290.44 209.056 291.705C209.056 291.705 209.056 291.705 209.056 291.727C209.699 295.502 211.273 302.452 214.575 304.295C214.575 304.295 214.575 304.295 214.598 304.295C214.775 304.406 214.974 304.473 215.152 304.54C215.174 304.54 215.174 304.562 215.196 304.562C222.954 307.937 236.742 309.091 236.742 309.091C236.742 309.091 243.059 310.024 250.507 310.89C250.884 310.934 251.283 310.979 251.682 311.023C251.948 311.045 252.236 311.09 252.502 311.112C252.768 311.134 253.034 311.179 253.3 311.201C253.832 311.267 254.364 311.312 254.918 311.378C255.184 311.401 255.45 311.445 255.716 311.467C256.204 311.512 256.714 311.556 257.201 311.623C257.733 311.667 258.287 311.734 258.819 311.778L259.196 311.8C259.418 311.823 259.64 311.845 259.861 311.867H259.883C260.415 311.911 260.925 311.956 261.435 312C261.524 312 261.612 312.022 261.701 312.022C261.812 312.022 261.923 312.045 262.056 312.045C262.078 312.045 262.122 312.045 262.144 312.045C262.233 312.045 262.322 312.067 262.41 312.067C262.521 312.067 262.632 312.089 262.743 312.089C262.876 312.089 263.031 312.111 263.164 312.111C263.208 312.111 263.275 312.111 263.319 312.111C263.364 312.111 263.386 312.111 263.43 312.111C263.563 312.111 263.718 312.133 263.851 312.133C263.94 312.133 264.006 312.133 264.095 312.156H264.117C264.161 312.156 264.206 312.156 264.25 312.156C264.339 312.156 264.45 312.178 264.538 312.178C264.605 312.178 264.649 312.178 264.693 312.178C264.959 312.2 265.203 312.2 265.469 312.222C265.558 312.222 265.647 312.222 265.735 312.244C265.846 312.244 265.957 312.267 266.068 312.267C266.156 312.267 266.223 312.267 266.312 312.289C266.334 312.289 266.356 312.289 266.4 312.289C266.511 312.289 266.6 312.289 266.711 312.311C266.888 312.311 267.043 312.333 267.22 312.333C267.398 312.333 267.575 312.333 267.752 312.355C267.841 312.355 267.93 312.355 268.041 312.355C268.151 312.355 268.262 312.355 268.373 312.355C268.484 312.355 268.573 312.355 268.683 312.355C268.794 312.355 268.883 312.355 268.994 312.355C270.235 312.378 271.343 312.333 272.23 312.244Z" fill="#345EAB"/>
<path d="M261.768 312.022C261.878 312.022 261.967 312.044 262.078 312.044C261.967 312.044 261.856 312.022 261.723 312.022C261.635 312.022 261.546 312 261.457 312C261.546 312 261.657 312 261.768 312.022Z" fill="#1FA2D8"/>
<path d="M261.767 312.022C261.878 312.022 261.967 312.044 262.078 312.044C261.967 312.044 261.856 312.022 261.723 312.022C261.723 312.022 261.745 312.022 261.767 312.022Z" fill="#1FA2D8"/>
<path d="M263.452 312.133C263.585 312.133 263.74 312.155 263.873 312.155C263.74 312.155 263.585 312.155 263.452 312.133C263.43 312.133 263.386 312.133 263.341 312.133C263.363 312.133 263.408 312.133 263.452 312.133Z" fill="#1FA2D8"/>
<path d="M265.824 312.266C265.979 312.266 266.156 312.288 266.312 312.288C266.223 312.288 266.156 312.288 266.068 312.266C265.979 312.288 265.913 312.288 265.824 312.266Z" fill="#1FA2D8"/>
<path d="M266.445 312.311C266.688 312.311 266.954 312.333 267.198 312.333C267.021 312.333 266.866 312.333 266.688 312.311C266.6 312.311 266.533 312.311 266.445 312.311Z" fill="#1FA2D8"/>
<path d="M272.23 312.244C271.343 312.355 270.235 312.377 268.971 312.377C268.861 312.377 268.772 312.377 268.661 312.377H268.728C270.102 312.377 271.299 312.333 272.23 312.244Z" fill="#1FA2D8"/>
<path d="M276.818 420.536C276.818 420.536 272.208 394.49 273.183 377.97C273.161 377.97 269.814 398.043 276.818 420.536Z" fill="#EFBE8A"/>
<path d="M285.153 324.212C285.153 324.212 292.645 324.678 296.258 326.033C296.258 326.033 302.332 327.565 303.706 335.78C303.684 335.78 301.911 325.033 285.153 324.212Z" fill="#EFBE8A"/>
<path d="M192.232 186.566L192.099 202.998C183.033 210.569 171.683 207.549 171.683 207.549C169.267 192.517 166.607 179.86 166.607 179.86C162.75 143.822 182.102 149.707 182.102 149.707C182.102 149.707 192.032 153.57 192.232 186.566Z" fill="#2C579C"/>
<path d="M191.722 245.742V247.141C191.677 246.363 191.722 245.831 191.722 245.742Z" fill="#EFBE8A"/>
<path d="M292.357 275.518C290.495 275.651 287.702 274.696 285.552 273.808C283.845 273.097 282.537 272.453 282.471 272.409C271.986 269.034 254.452 274.518 254.452 274.518C248.933 276.983 234.547 275.207 234.547 275.207C218.122 275.762 181.348 273.075 181.348 273.075C173.434 272.365 175.407 244.143 175.407 244.143C175.496 234.306 173.678 220.117 171.683 207.594C171.683 207.594 183.055 210.614 192.099 203.042L191.722 245.719C191.722 245.808 191.677 246.363 191.722 247.118C191.833 249.316 192.586 253.335 196.665 253.846C240.377 259.353 242.882 262.217 242.882 262.217C247.182 265.725 260.216 260.396 260.216 260.396C267.486 257.154 281.03 264.415 289.586 269.855C290.584 270.499 291.492 271.099 292.335 271.654C296.679 275.007 292.357 275.518 292.357 275.518Z" fill="#FBC994"/>
<path d="M292.335 271.676C291.493 271.121 290.562 270.5 289.586 269.878C290.761 270.566 291.648 271.166 292.335 271.676Z" fill="#FBC994"/>
<path d="M200.834 339.733H175.01V313.865" stroke="white" stroke-width="2" stroke-miterlimit="10"/>
<path d="M174.986 328.365C181.259 328.365 186.335 333.45 186.335 339.733" stroke="white" stroke-width="2" stroke-miterlimit="10"/>
<path d="M270.435 332.184H296.281V358.052" stroke="white" stroke-width="2" stroke-miterlimit="10"/>
<path d="M296.28 343.552C290.007 343.552 284.931 338.467 284.931 332.184" stroke="white" stroke-width="2" stroke-miterlimit="10"/>
<path d="M189.15 317.839C189.15 318.217 189.128 318.572 189.084 318.95C189.04 319.327 188.951 319.682 188.862 320.015C188.751 320.348 188.619 320.682 188.441 320.97C188.264 321.259 188.042 321.525 187.798 321.725C187.555 321.925 187.222 322.103 186.89 322.236C186.535 322.369 186.136 322.413 185.67 322.413C185.471 322.413 185.294 322.391 185.138 322.369C184.961 322.347 184.828 322.325 184.695 322.28C184.562 322.258 184.451 322.214 184.363 322.169C184.274 322.125 184.207 322.103 184.163 322.058C184.119 322.014 184.097 321.969 184.074 321.925C184.052 321.858 184.052 321.792 184.052 321.703C184.052 321.636 184.052 321.592 184.052 321.548C184.052 321.503 184.074 321.481 184.074 321.459C184.097 321.436 184.097 321.414 184.119 321.414C184.141 321.414 184.163 321.392 184.185 321.392C184.23 321.392 184.296 321.414 184.385 321.436C184.473 321.481 184.584 321.503 184.695 321.548C184.806 321.592 184.983 321.614 185.161 321.659C185.338 321.703 185.537 321.703 185.759 321.703C186.202 321.703 186.601 321.614 186.912 321.436C187.244 321.259 187.51 321.015 187.71 320.726C187.909 320.437 188.064 320.082 188.175 319.682C188.286 319.283 188.33 318.861 188.353 318.439C188.109 318.572 187.821 318.705 187.466 318.816C187.133 318.927 186.734 318.972 186.291 318.972C185.803 318.972 185.427 318.905 185.094 318.772C184.784 318.639 184.518 318.461 184.34 318.239C184.141 318.017 184.008 317.751 183.941 317.462C183.853 317.173 183.831 316.862 183.831 316.529C183.831 316.174 183.875 315.841 183.986 315.53C184.074 315.197 184.252 314.908 184.451 314.664C184.673 314.42 184.939 314.198 185.294 314.042C185.648 313.887 186.069 313.82 186.557 313.82C186.89 313.82 187.178 313.865 187.422 313.954C187.688 314.042 187.909 314.176 188.087 314.331C188.264 314.486 188.441 314.686 188.574 314.931C188.707 315.175 188.818 315.441 188.907 315.73C188.995 316.019 189.062 316.352 189.084 316.707C189.128 317.084 189.15 317.462 189.15 317.839ZM188.33 317.773C188.33 317.173 188.286 316.662 188.197 316.263C188.109 315.841 187.998 315.508 187.821 315.264C187.665 314.997 187.466 314.82 187.222 314.708C186.978 314.597 186.712 314.531 186.402 314.531C186.069 314.531 185.803 314.597 185.582 314.708C185.36 314.82 185.161 314.975 185.028 315.175C184.895 315.375 184.784 315.574 184.717 315.819C184.651 316.063 184.606 316.285 184.606 316.529C184.606 316.796 184.629 317.062 184.695 317.284C184.762 317.506 184.85 317.706 184.983 317.884C185.116 318.039 185.294 318.172 185.515 318.261C185.737 318.35 186.003 318.394 186.335 318.394C186.69 318.394 187.045 318.35 187.399 318.239C187.798 318.106 188.087 317.95 188.33 317.773Z" fill="white"/>
<path d="M196.089 318.128C196.089 318.75 196.044 319.327 195.933 319.86C195.845 320.393 195.667 320.837 195.446 321.214C195.224 321.592 194.914 321.903 194.537 322.103C194.16 322.325 193.717 322.413 193.163 322.413C192.653 322.413 192.232 322.325 191.877 322.147C191.522 321.969 191.234 321.703 191.035 321.325C190.813 320.97 190.658 320.526 190.569 319.993C190.481 319.46 190.414 318.839 190.414 318.15C190.414 317.528 190.458 316.951 190.569 316.418C190.658 315.885 190.835 315.441 191.057 315.064C191.279 314.686 191.589 314.375 191.966 314.176C192.343 313.954 192.786 313.865 193.34 313.865C193.85 313.865 194.271 313.954 194.626 314.131C194.98 314.309 195.269 314.575 195.468 314.953C195.69 315.308 195.845 315.752 195.933 316.285C196.044 316.818 196.089 317.44 196.089 318.128ZM195.268 318.195C195.268 317.773 195.246 317.373 195.224 317.04C195.202 316.685 195.135 316.396 195.069 316.107C195.003 315.841 194.914 315.597 194.803 315.397C194.692 315.197 194.581 315.042 194.426 314.908C194.271 314.775 194.116 314.686 193.916 314.62C193.717 314.553 193.517 314.531 193.274 314.531C192.852 314.531 192.498 314.62 192.232 314.82C191.966 315.019 191.766 315.286 191.611 315.619C191.456 315.952 191.367 316.329 191.301 316.751C191.256 317.173 191.234 317.617 191.234 318.084C191.234 318.727 191.279 319.26 191.345 319.727C191.412 320.193 191.545 320.57 191.7 320.859C191.855 321.148 192.054 321.37 192.32 321.525C192.564 321.681 192.875 321.747 193.229 321.747C193.517 321.747 193.761 321.703 193.961 321.614C194.16 321.525 194.36 321.392 194.493 321.237C194.648 321.081 194.759 320.881 194.87 320.659C194.958 320.437 195.047 320.193 195.091 319.927C195.158 319.66 195.18 319.394 195.202 319.105C195.246 318.794 195.268 318.505 195.268 318.195Z" fill="white"/>
<path d="M200.832 315.752C200.832 316.041 200.788 316.285 200.699 316.529C200.611 316.773 200.5 316.973 200.322 317.151C200.167 317.329 199.968 317.462 199.724 317.551C199.48 317.639 199.214 317.706 198.926 317.706C198.593 317.706 198.327 317.662 198.084 317.573C197.862 317.484 197.662 317.373 197.507 317.195C197.352 317.04 197.241 316.84 197.175 316.596C197.108 316.374 197.064 316.107 197.064 315.796C197.064 315.508 197.108 315.241 197.175 315.019C197.263 314.775 197.374 314.575 197.529 314.398C197.685 314.22 197.884 314.087 198.128 313.998C198.372 313.909 198.66 313.865 198.97 313.865C199.281 313.865 199.547 313.909 199.768 313.998C199.99 314.087 200.189 314.22 200.345 314.375C200.5 314.531 200.611 314.731 200.677 314.953C200.81 315.219 200.832 315.486 200.832 315.752ZM200.145 315.796C200.145 315.619 200.123 315.441 200.101 315.264C200.056 315.108 200.012 314.953 199.901 314.82C199.813 314.686 199.702 314.597 199.547 314.531C199.391 314.464 199.214 314.42 198.992 314.42C198.793 314.42 198.616 314.464 198.46 314.531C198.305 314.597 198.194 314.686 198.084 314.82C197.995 314.931 197.906 315.086 197.862 315.241C197.818 315.419 197.795 315.597 197.795 315.796C197.795 315.996 197.818 316.174 197.84 316.329C197.884 316.485 197.951 316.64 198.039 316.751C198.128 316.885 198.239 316.973 198.394 317.04C198.549 317.107 198.726 317.151 198.948 317.151C199.325 317.151 199.613 317.04 199.835 316.818C200.034 316.596 200.145 316.263 200.145 315.796Z" fill="white"/>
<path d="M276.176 353.478C276.176 353.855 276.153 354.211 276.109 354.588C276.065 354.966 275.976 355.321 275.887 355.654C275.777 355.987 275.644 356.32 275.466 356.609C275.289 356.897 275.067 357.164 274.823 357.364C274.557 357.586 274.247 357.741 273.915 357.874C273.56 358.008 273.161 358.052 272.696 358.052C272.496 358.052 272.319 358.03 272.164 358.008C271.986 357.985 271.853 357.963 271.72 357.919C271.587 357.897 271.476 357.852 271.388 357.808C271.299 357.763 271.233 357.741 271.188 357.697C271.144 357.652 271.122 357.608 271.1 357.564C271.077 357.497 271.077 357.43 271.077 357.342C271.077 357.275 271.077 357.231 271.077 357.186C271.077 357.142 271.1 357.12 271.1 357.097C271.122 357.075 271.122 357.053 271.144 357.053C271.166 357.053 271.188 357.031 271.21 357.031C271.255 357.031 271.321 357.053 271.41 357.075C271.499 357.12 271.609 357.142 271.72 357.186C271.853 357.231 272.008 357.253 272.186 357.297C272.363 357.342 272.563 357.342 272.784 357.342C273.227 357.342 273.626 357.253 273.937 357.075C274.269 356.897 274.535 356.653 274.735 356.365C274.934 356.076 275.089 355.721 275.2 355.321C275.311 354.921 275.355 354.499 275.378 354.078C275.134 354.211 274.846 354.344 274.491 354.455C274.158 354.566 273.759 354.61 273.316 354.61C272.829 354.61 272.452 354.544 272.119 354.411C271.809 354.277 271.543 354.1 271.366 353.878C271.166 353.656 271.033 353.389 270.967 353.101C270.878 352.812 270.856 352.501 270.856 352.168C270.856 351.813 270.9 351.48 271.011 351.169C271.1 350.836 271.277 350.547 271.476 350.303C271.698 350.059 271.964 349.836 272.319 349.681C272.673 349.526 273.094 349.459 273.582 349.459C273.915 349.459 274.203 349.503 274.447 349.592C274.713 349.681 274.934 349.814 275.112 349.97C275.289 350.125 275.466 350.325 275.599 350.569C275.732 350.813 275.843 351.08 275.932 351.369C276.02 351.657 276.087 351.99 276.109 352.346C276.153 352.723 276.176 353.101 276.176 353.478ZM275.333 353.411C275.333 352.812 275.289 352.301 275.2 351.901C275.112 351.48 275.001 351.147 274.823 350.902C274.668 350.636 274.469 350.458 274.225 350.347C273.981 350.236 273.715 350.17 273.405 350.17C273.072 350.17 272.806 350.236 272.585 350.347C272.363 350.458 272.164 350.614 272.031 350.813C271.898 351.013 271.787 351.213 271.72 351.457C271.654 351.702 271.609 351.924 271.609 352.168C271.609 352.434 271.632 352.701 271.698 352.923C271.765 353.145 271.853 353.345 271.986 353.522C272.119 353.678 272.297 353.811 272.518 353.9C272.74 353.989 273.006 354.033 273.338 354.033C273.693 354.033 274.048 353.989 274.402 353.878C274.801 353.744 275.089 353.589 275.333 353.411Z" fill="white"/>
<path d="M283.114 353.767C283.114 354.388 283.069 354.966 282.959 355.499C282.87 356.031 282.693 356.476 282.471 356.853C282.249 357.23 281.939 357.541 281.562 357.741C281.185 357.963 280.742 358.052 280.188 358.052C279.678 358.052 279.257 357.963 278.902 357.786C278.548 357.608 278.259 357.341 278.06 356.964C277.838 356.609 277.683 356.165 277.594 355.632C277.506 355.099 277.439 354.477 277.439 353.789C277.439 353.167 277.484 352.59 277.594 352.057C277.683 351.524 277.86 351.08 278.082 350.702C278.304 350.325 278.614 350.014 278.991 349.814C279.368 349.592 279.811 349.503 280.365 349.503C280.875 349.503 281.296 349.592 281.651 349.77C282.005 349.947 282.294 350.214 282.493 350.591C282.715 350.947 282.87 351.391 282.959 351.924C283.047 352.457 283.114 353.078 283.114 353.767ZM282.271 353.833C282.271 353.411 282.249 353.012 282.227 352.679C282.205 352.323 282.138 352.035 282.072 351.746C282.005 351.48 281.917 351.235 281.806 351.036C281.695 350.836 281.584 350.68 281.429 350.547C281.274 350.414 281.119 350.325 280.919 350.258C280.72 350.192 280.52 350.17 280.276 350.17C279.855 350.17 279.501 350.258 279.235 350.458C278.969 350.658 278.769 350.924 278.614 351.258C278.459 351.591 278.37 351.968 278.304 352.39C278.259 352.812 278.237 353.256 278.237 353.722C278.237 354.366 278.282 354.899 278.348 355.365C278.415 355.832 278.548 356.209 278.703 356.498C278.858 356.786 279.057 357.008 279.323 357.164C279.567 357.319 279.878 357.386 280.232 357.386C280.52 357.386 280.764 357.341 280.964 357.253C281.163 357.164 281.363 357.031 281.496 356.875C281.651 356.72 281.762 356.52 281.872 356.298C281.961 356.076 282.05 355.832 282.094 355.565C282.161 355.299 282.183 355.032 282.205 354.744C282.271 354.433 282.271 354.144 282.271 353.833Z" fill="white"/>
<path d="M287.857 351.391C287.857 351.679 287.813 351.924 287.724 352.168C287.636 352.412 287.525 352.612 287.347 352.79C287.192 352.967 286.993 353.1 286.749 353.189C286.505 353.278 286.239 353.345 285.951 353.345C285.619 353.345 285.353 353.3 285.109 353.211C284.887 353.123 284.688 353.012 284.532 352.834C284.377 352.679 284.266 352.479 284.2 352.234C284.133 352.012 284.089 351.746 284.089 351.435C284.089 351.146 284.133 350.88 284.2 350.658C284.289 350.414 284.399 350.214 284.555 350.036C284.71 349.859 284.909 349.725 285.153 349.637C285.397 349.548 285.685 349.503 285.995 349.503C286.306 349.503 286.572 349.548 286.793 349.637C287.015 349.725 287.214 349.859 287.37 350.014C287.525 350.17 287.636 350.369 287.702 350.591C287.813 350.858 287.857 351.124 287.857 351.391ZM287.148 351.435C287.148 351.257 287.126 351.08 287.104 350.902C287.059 350.747 287.015 350.591 286.904 350.458C286.815 350.325 286.705 350.236 286.55 350.17C286.394 350.103 286.217 350.059 285.995 350.059C285.796 350.059 285.619 350.103 285.463 350.17C285.308 350.236 285.197 350.325 285.087 350.458C284.998 350.569 284.909 350.725 284.865 350.88C284.821 351.058 284.798 351.235 284.798 351.435C284.798 351.635 284.821 351.813 284.843 351.968C284.887 352.123 284.954 352.279 285.042 352.39C285.131 352.523 285.242 352.612 285.397 352.678C285.552 352.745 285.729 352.79 285.951 352.79C286.328 352.79 286.616 352.678 286.838 352.456C287.037 352.234 287.148 351.901 287.148 351.435Z" fill="white"/>
<path d="M208.191 268.701H182.345V242.811" stroke="white" stroke-width="2" stroke-miterlimit="10"/>
<path d="M182.345 257.333C188.619 257.333 193.695 262.417 193.695 268.701" stroke="white" stroke-width="2" stroke-miterlimit="10"/>
<path d="M187.266 285.421C187.266 285.798 187.244 286.154 187.2 286.531C187.156 286.909 187.067 287.264 186.978 287.597C186.867 287.93 186.734 288.263 186.557 288.552C186.38 288.84 186.158 289.107 185.914 289.307C185.648 289.529 185.338 289.684 185.005 289.817C184.651 289.951 184.252 289.995 183.786 289.995C183.587 289.995 183.41 289.973 183.254 289.951C183.077 289.928 182.944 289.906 182.811 289.862C182.678 289.84 182.567 289.795 182.479 289.751C182.39 289.706 182.323 289.684 182.279 289.64C182.235 289.595 182.213 289.551 182.19 289.507C182.168 289.44 182.168 289.373 182.168 289.284C182.168 289.218 182.168 289.173 182.168 289.129C182.168 289.085 182.19 289.062 182.19 289.04C182.213 289.018 182.213 288.996 182.235 288.996C182.257 288.996 182.279 288.974 182.301 288.974C182.346 288.974 182.412 288.996 182.501 289.018C182.589 289.062 182.7 289.085 182.811 289.129C182.944 289.173 183.099 289.196 183.277 289.24C183.454 289.284 183.653 289.284 183.875 289.284C184.318 289.284 184.717 289.196 185.028 289.018C185.36 288.84 185.626 288.596 185.826 288.307C186.025 288.019 186.18 287.664 186.291 287.264C186.402 286.864 186.446 286.442 186.468 286.02C186.225 286.154 185.936 286.287 185.582 286.398C185.249 286.509 184.85 286.553 184.407 286.553C183.919 286.553 183.542 286.487 183.21 286.353C182.9 286.22 182.634 286.043 182.456 285.821C182.257 285.599 182.124 285.332 182.057 285.043C181.969 284.755 181.947 284.444 181.947 284.111C181.947 283.756 181.991 283.422 182.102 283.112C182.19 282.779 182.368 282.49 182.567 282.246C182.789 282.001 183.055 281.779 183.41 281.624C183.764 281.468 184.185 281.402 184.673 281.402C185.005 281.402 185.294 281.446 185.537 281.535C185.803 281.624 186.025 281.757 186.202 281.913C186.402 282.068 186.557 282.268 186.69 282.512C186.823 282.756 186.934 283.023 187.023 283.311C187.111 283.6 187.178 283.933 187.2 284.288C187.244 284.666 187.266 285.043 187.266 285.421ZM186.424 285.354C186.424 284.755 186.38 284.244 186.291 283.844C186.202 283.422 186.092 283.089 185.914 282.845C185.759 282.579 185.56 282.401 185.316 282.29C185.072 282.179 184.806 282.112 184.496 282.112C184.163 282.112 183.897 282.179 183.675 282.29C183.454 282.401 183.254 282.557 183.121 282.756C182.988 282.956 182.878 283.156 182.811 283.4C182.745 283.645 182.7 283.867 182.7 284.111C182.7 284.377 182.722 284.644 182.789 284.866C182.855 285.088 182.944 285.288 183.077 285.465C183.21 285.621 183.387 285.754 183.609 285.843C183.831 285.932 184.097 285.976 184.429 285.976C184.784 285.976 185.138 285.932 185.493 285.821C185.892 285.687 186.18 285.532 186.424 285.354Z" fill="white"/>
<path d="M194.205 285.71C194.205 286.331 194.16 286.909 194.049 287.441C193.961 287.974 193.783 288.418 193.562 288.796C193.34 289.173 193.03 289.484 192.653 289.684C192.276 289.906 191.833 289.995 191.279 289.995C190.769 289.995 190.348 289.906 189.993 289.729C189.638 289.551 189.35 289.284 189.151 288.907C188.951 288.53 188.774 288.108 188.685 287.575C188.597 287.042 188.53 286.42 188.53 285.732C188.53 285.11 188.574 284.533 188.685 284C188.774 283.467 188.951 283.023 189.173 282.645C189.395 282.268 189.705 281.957 190.082 281.757C190.459 281.535 190.902 281.446 191.456 281.446C191.966 281.446 192.387 281.535 192.742 281.713C193.096 281.89 193.384 282.157 193.584 282.534C193.806 282.89 193.961 283.334 194.049 283.867C194.138 284.399 194.205 285.021 194.205 285.71ZM193.362 285.776C193.362 285.354 193.34 284.955 193.318 284.622C193.296 284.266 193.229 283.978 193.163 283.689C193.096 283.422 193.008 283.178 192.897 282.978C192.786 282.779 192.675 282.623 192.52 282.49C192.365 282.357 192.21 282.268 192.01 282.201C191.811 282.135 191.611 282.112 191.367 282.112C190.946 282.112 190.592 282.201 190.326 282.401C190.06 282.601 189.86 282.867 189.705 283.2C189.55 283.534 189.461 283.911 189.395 284.333C189.35 284.755 189.328 285.199 189.328 285.665C189.328 286.309 189.372 286.842 189.439 287.308C189.505 287.775 189.638 288.152 189.794 288.441C189.949 288.729 190.148 288.951 190.414 289.107C190.658 289.262 190.968 289.329 191.323 289.329C191.611 289.329 191.855 289.284 192.054 289.196C192.254 289.107 192.453 288.974 192.586 288.818C192.742 288.663 192.852 288.463 192.963 288.241C193.052 288.019 193.141 287.775 193.185 287.508C193.251 287.242 193.274 286.975 193.296 286.687C193.362 286.376 193.362 286.087 193.362 285.776Z" fill="white"/>
<path d="M198.948 283.334C198.948 283.622 198.904 283.867 198.815 284.111C198.727 284.355 198.616 284.555 198.438 284.733C198.283 284.91 198.084 285.043 197.84 285.132C197.596 285.221 197.33 285.288 197.042 285.288C196.709 285.288 196.443 285.243 196.2 285.154C195.978 285.066 195.778 284.955 195.623 284.777C195.468 284.622 195.357 284.422 195.291 284.177C195.224 283.955 195.18 283.689 195.18 283.378C195.18 283.089 195.224 282.823 195.291 282.601C195.379 282.357 195.49 282.157 195.645 281.979C195.801 281.802 196 281.668 196.244 281.58C196.488 281.491 196.776 281.446 197.086 281.446C197.397 281.446 197.663 281.491 197.884 281.58C198.106 281.668 198.305 281.802 198.461 281.957C198.616 282.112 198.727 282.312 198.793 282.534C198.904 282.801 198.948 283.067 198.948 283.334ZM198.239 283.378C198.239 283.2 198.217 283.023 198.195 282.845C198.15 282.69 198.106 282.534 197.995 282.401C197.906 282.268 197.796 282.179 197.64 282.112C197.485 282.046 197.308 282.001 197.086 282.001C196.887 282.001 196.709 282.046 196.554 282.112C196.399 282.179 196.288 282.268 196.177 282.401C196.089 282.512 196 282.668 195.956 282.823C195.911 283.001 195.889 283.178 195.889 283.378C195.889 283.578 195.911 283.756 195.934 283.911C195.978 284.066 196.044 284.222 196.133 284.333C196.222 284.466 196.333 284.555 196.488 284.622C196.643 284.688 196.82 284.733 197.042 284.733C197.419 284.733 197.707 284.622 197.929 284.399C198.128 284.177 198.239 283.844 198.239 283.378Z" fill="white"/>
<path d="M215.927 69.438H218.698" stroke="#1FA2D8" stroke-miterlimit="10"/>
<path d="M224.395 69.438H346.908" stroke="#1FA2D8" stroke-miterlimit="10" stroke-dasharray="25.71 25.71"/>
<path d="M349.768 69.438H352.539" stroke="#1FA2D8" stroke-miterlimit="10"/>
<path d="M291.803 59.1791C291.803 59.2679 291.781 59.3567 291.736 59.4233C291.692 59.4899 291.648 59.5121 291.559 59.5121H290.517V61.3773C290.517 61.3995 290.517 61.4217 290.495 61.4439C290.473 61.4661 290.451 61.4883 290.429 61.4883C290.406 61.5106 290.362 61.5105 290.318 61.5105C290.273 61.5105 290.207 61.5328 290.14 61.5328C290.074 61.5328 290.007 61.5328 289.963 61.5105C289.919 61.5105 289.874 61.4883 289.852 61.4883C289.83 61.4661 289.808 61.4661 289.786 61.4439C289.786 61.4217 289.764 61.3995 289.764 61.3773V59.5121H286.217C286.173 59.5121 286.15 59.5121 286.106 59.4899C286.084 59.4899 286.04 59.4677 286.017 59.4455C285.995 59.4233 285.973 59.3789 285.973 59.3345C285.973 59.2901 285.951 59.2457 285.951 59.1791C285.951 59.1347 285.951 59.0681 285.951 59.0236C285.951 58.9792 285.973 58.9348 285.973 58.9126C285.973 58.8682 285.995 58.846 286.017 58.8016C286.04 58.7572 286.062 58.735 286.084 58.6906L289.276 53.3837C289.298 53.3615 289.32 53.3171 289.365 53.2949C289.387 53.2727 289.431 53.2505 289.475 53.2283C289.52 53.2061 289.586 53.2061 289.653 53.2061C289.719 53.2061 289.808 53.2061 289.897 53.2061C289.985 53.2061 290.074 53.2061 290.163 53.2283C290.229 53.2283 290.296 53.2505 290.362 53.2727C290.406 53.2949 290.451 53.3171 290.473 53.3393C290.495 53.3615 290.517 53.3837 290.517 53.4281V58.8904H291.559C291.626 58.8904 291.692 58.9126 291.736 58.9792C291.781 58.9792 291.803 59.0681 291.803 59.1791ZM289.741 53.8944L286.771 58.8238H289.741V53.8944Z" fill="#1FA2D8"/>
<path d="M297.987 58.8685C297.987 59.3126 297.921 59.69 297.766 60.0453C297.611 60.3784 297.411 60.667 297.145 60.9113C296.879 61.1555 296.569 61.3332 296.192 61.4442C295.815 61.5552 295.416 61.6218 294.973 61.6218C294.707 61.6218 294.485 61.5996 294.241 61.5552C294.02 61.5108 293.798 61.4664 293.621 61.422C293.443 61.3776 293.288 61.311 293.177 61.2666C293.066 61.2222 293 61.1777 292.956 61.1555C292.933 61.1333 292.911 61.1111 292.889 61.0889C292.889 61.0667 292.867 61.0445 292.867 61.0223C292.867 61.0001 292.845 60.9557 292.845 60.9113C292.845 60.8669 292.845 60.8225 292.845 60.7781C292.845 60.7337 292.845 60.6892 292.845 60.6448C292.845 60.6004 292.867 60.556 292.867 60.5338C292.889 60.5116 292.889 60.4894 292.911 60.4672C292.933 60.445 292.956 60.445 292.978 60.445C293.022 60.445 293.089 60.4672 293.177 60.5338C293.266 60.5782 293.399 60.6448 293.554 60.7115C293.709 60.7781 293.909 60.8447 294.13 60.8891C294.352 60.9335 294.64 60.9779 294.951 60.9779C295.261 60.9779 295.527 60.9335 295.793 60.8669C296.059 60.8003 296.281 60.667 296.458 60.5116C296.657 60.3562 296.79 60.1341 296.901 59.8899C297.012 59.6456 297.056 59.3348 297.056 58.9795C297.056 58.6908 297.012 58.4244 296.923 58.2023C296.835 57.9803 296.68 57.8027 296.502 57.6472C296.303 57.4918 296.059 57.3808 295.771 57.3142C295.483 57.2475 295.128 57.2031 294.751 57.2031C294.485 57.2031 294.263 57.2253 294.086 57.2475C293.909 57.2697 293.731 57.292 293.576 57.292C293.465 57.292 293.377 57.2697 293.332 57.2031C293.288 57.1587 293.266 57.0477 293.266 56.8923V53.606C293.266 53.495 293.288 53.3839 293.355 53.3173C293.421 53.2507 293.51 53.2285 293.621 53.2285H297.145C297.189 53.2285 297.212 53.2285 297.234 53.2507C297.256 53.2729 297.278 53.2951 297.3 53.3173C297.322 53.3395 297.345 53.3839 297.345 53.4284C297.345 53.4728 297.367 53.5172 297.367 53.5838C297.367 53.6726 297.345 53.7614 297.3 53.828C297.256 53.8947 297.212 53.9391 297.123 53.9391H293.975V56.5592C294.13 56.537 294.286 56.5148 294.441 56.5148C294.596 56.5148 294.795 56.5148 295.017 56.5148C295.505 56.5148 295.926 56.5814 296.281 56.6924C296.635 56.8034 296.946 56.9811 297.167 57.1809C297.411 57.3808 297.588 57.6472 297.699 57.9359C297.943 58.2023 297.987 58.5132 297.987 58.8685Z" fill="#1FA2D8"/>
<path d="M304.97 57.3585C304.97 57.9802 304.925 58.5576 304.815 59.0683C304.726 59.579 304.549 60.0453 304.327 60.4227C304.105 60.8002 303.795 61.0889 303.44 61.3109C303.063 61.533 302.62 61.6218 302.088 61.6218C301.6 61.6218 301.157 61.533 300.825 61.3553C300.47 61.1777 300.204 60.9112 299.982 60.556C299.761 60.2007 299.605 59.7566 299.517 59.2237C299.428 58.6908 299.384 58.0913 299.384 57.4029C299.384 56.7812 299.428 56.2261 299.539 55.6932C299.628 55.1825 299.805 54.7162 300.027 54.3387C300.248 53.9612 300.559 53.6726 300.913 53.4505C301.29 53.2285 301.733 53.1396 302.265 53.1396C302.753 53.1396 303.174 53.2285 303.529 53.4061C303.884 53.5837 304.15 53.8502 304.371 54.2055C304.593 54.5607 304.748 55.0048 304.837 55.5377C304.925 56.0484 304.97 56.6702 304.97 57.3585ZM304.15 57.4251C304.15 57.0032 304.127 56.6258 304.105 56.2705C304.083 55.9374 304.017 55.6266 303.95 55.3601C303.884 55.0936 303.795 54.8494 303.684 54.6496C303.573 54.4497 303.462 54.2943 303.307 54.1611C303.152 54.0278 302.997 53.939 302.797 53.8724C302.62 53.8058 302.398 53.7836 302.155 53.7836C301.733 53.7836 301.401 53.8724 301.135 54.0722C300.869 54.2721 300.669 54.5385 300.514 54.8716C300.359 55.2047 300.27 55.5821 300.226 56.004C300.182 56.4259 300.16 56.87 300.16 57.3141C300.16 57.9358 300.204 58.4909 300.27 58.9572C300.337 59.4235 300.448 59.801 300.625 60.0897C300.78 60.3783 300.98 60.6004 301.224 60.7558C301.467 60.889 301.778 60.9779 302.132 60.9779C302.421 60.9779 302.664 60.9334 302.864 60.8446C303.063 60.7558 303.241 60.6226 303.396 60.4671C303.551 60.3117 303.662 60.1119 303.773 59.8898C303.861 59.6678 303.95 59.4235 303.994 59.1571C304.039 58.8906 304.083 58.6242 304.105 58.3355C304.15 58.0246 304.15 57.736 304.15 57.4251Z" fill="#1FA2D8"/>
<path d="M309.602 58.2689C309.602 58.4021 309.58 58.4687 309.558 58.5131C309.514 58.5575 309.469 58.5797 309.425 58.5797H306.743C306.699 58.5797 306.632 58.5575 306.61 58.5131C306.566 58.4687 306.566 58.3799 306.566 58.2689C306.566 58.1578 306.588 58.069 306.61 58.0246C306.654 57.9802 306.699 57.958 306.743 57.958H309.425C309.447 57.958 309.469 57.958 309.492 57.9802C309.514 57.9802 309.536 58.0024 309.558 58.0246C309.58 58.0468 309.58 58.0912 309.602 58.1134C309.602 58.1578 309.602 58.2023 309.602 58.2689Z" fill="#1FA2D8"/>
<path d="M319.001 53.5835C319.001 53.6279 319.001 53.6724 319.001 53.7168C319.001 53.7612 319.001 53.8056 318.979 53.85C318.979 53.8944 318.957 53.9388 318.934 53.9832C318.912 54.0276 318.912 54.072 318.89 54.1164L315.787 61.2885C315.765 61.3329 315.743 61.3773 315.72 61.4217C315.698 61.4439 315.654 61.4883 315.632 61.4883C315.587 61.5105 315.543 61.5105 315.499 61.5327C315.454 61.5327 315.366 61.5327 315.299 61.5327C315.211 61.5327 315.122 61.5327 315.078 61.5105C315.033 61.4883 314.989 61.4883 314.967 61.4439C314.945 61.4217 314.945 61.3995 314.945 61.3551C314.945 61.3107 314.967 61.2885 314.989 61.2441L318.225 53.9166H313.991C313.925 53.9166 313.858 53.8722 313.814 53.8056C313.77 53.739 313.748 53.6501 313.748 53.5613C313.748 53.5169 313.748 53.4503 313.77 53.4059C313.77 53.3615 313.792 53.3171 313.814 53.2949C313.836 53.2727 313.858 53.2505 313.881 53.2283C313.903 53.2061 313.947 53.2061 313.969 53.2061H318.713C318.757 53.2061 318.824 53.2061 318.846 53.2283C318.89 53.2505 318.912 53.2727 318.934 53.2949C318.957 53.3171 318.979 53.3615 318.979 53.4059C319.001 53.4725 319.001 53.5169 319.001 53.5835Z" fill="#1FA2D8"/>
<path d="M325.407 58.8685C325.407 59.3126 325.34 59.69 325.185 60.0453C325.03 60.3784 324.831 60.667 324.565 60.9113C324.299 61.1555 323.988 61.3332 323.612 61.4442C323.235 61.5552 322.836 61.6218 322.392 61.6218C322.126 61.6218 321.905 61.5996 321.661 61.5552C321.439 61.5108 321.218 61.4664 321.04 61.422C320.863 61.3776 320.708 61.311 320.597 61.2666C320.486 61.2222 320.42 61.1777 320.375 61.1555C320.353 61.1333 320.331 61.1111 320.309 61.0889C320.309 61.0667 320.287 61.0445 320.287 61.0223C320.287 61.0001 320.264 60.9557 320.264 60.9113C320.264 60.8669 320.264 60.8225 320.264 60.7781C320.264 60.7337 320.264 60.6892 320.264 60.6448C320.264 60.6004 320.287 60.556 320.287 60.5338C320.309 60.5116 320.309 60.4894 320.331 60.4672C320.353 60.445 320.375 60.445 320.397 60.445C320.442 60.445 320.508 60.4672 320.597 60.5338C320.686 60.5782 320.819 60.6448 320.974 60.7115C321.129 60.7781 321.328 60.8447 321.55 60.8891C321.772 60.9335 322.06 60.9779 322.37 60.9779C322.681 60.9779 322.947 60.9335 323.213 60.8669C323.479 60.8003 323.7 60.667 323.878 60.5116C324.077 60.3562 324.21 60.1341 324.321 59.8899C324.432 59.6456 324.476 59.3348 324.476 58.9795C324.476 58.6908 324.432 58.4244 324.343 58.2023C324.254 57.9803 324.099 57.8027 323.922 57.6472C323.722 57.4918 323.479 57.3808 323.19 57.3142C322.902 57.2475 322.548 57.2031 322.171 57.2031C321.905 57.2031 321.683 57.2253 321.506 57.2475C321.328 57.2697 321.151 57.292 320.996 57.292C320.885 57.292 320.796 57.2697 320.752 57.2031C320.708 57.1587 320.686 57.0477 320.686 56.8923V53.606C320.686 53.495 320.708 53.3839 320.774 53.3173C320.841 53.2507 320.929 53.2285 321.04 53.2285H324.565C324.609 53.2285 324.631 53.2285 324.653 53.2507C324.675 53.2729 324.698 53.2951 324.72 53.3173C324.742 53.3395 324.764 53.3839 324.764 53.4284C324.764 53.4728 324.786 53.5172 324.786 53.5838C324.786 53.6726 324.764 53.7614 324.72 53.828C324.675 53.8947 324.631 53.9391 324.542 53.9391H321.395V56.5592C321.55 56.537 321.705 56.5148 321.86 56.5148C322.016 56.5148 322.215 56.5148 322.437 56.5148C322.924 56.5148 323.346 56.5814 323.7 56.6924C324.055 56.8034 324.365 56.9811 324.587 57.1809C324.831 57.3808 325.008 57.6472 325.119 57.9359C325.363 58.2023 325.407 58.5132 325.407 58.8685Z" fill="#1FA2D8"/>
<path d="M332.389 57.3585C332.389 57.9802 332.345 58.5576 332.234 59.0683C332.146 59.579 331.968 60.0453 331.747 60.4227C331.525 60.8002 331.215 61.0889 330.86 61.3109C330.483 61.533 330.04 61.6218 329.508 61.6218C329.02 61.6218 328.577 61.533 328.244 61.3553C327.89 61.1777 327.624 60.9112 327.402 60.556C327.18 60.2007 327.025 59.7566 326.936 59.2237C326.848 58.6908 326.803 58.0913 326.803 57.4029C326.803 56.7812 326.848 56.2261 326.959 55.6932C327.047 55.1825 327.225 54.7162 327.446 54.3387C327.668 53.9612 327.978 53.6726 328.333 53.4505C328.71 53.2285 329.153 53.1396 329.685 53.1396C330.173 53.1396 330.594 53.2285 330.949 53.4061C331.303 53.5837 331.569 53.8502 331.791 54.2055C332.013 54.5607 332.168 55.0048 332.256 55.5377C332.345 56.0484 332.389 56.6702 332.389 57.3585ZM331.569 57.4251C331.569 57.0032 331.547 56.6258 331.525 56.2705C331.503 55.9374 331.436 55.6266 331.37 55.3601C331.303 55.0936 331.215 54.8494 331.104 54.6496C330.993 54.4497 330.882 54.2943 330.727 54.1611C330.572 54.0278 330.417 53.939 330.217 53.8724C330.04 53.8058 329.818 53.7836 329.574 53.7836C329.153 53.7836 328.821 53.8724 328.555 54.0722C328.289 54.2721 328.089 54.5385 327.934 54.8716C327.779 55.2047 327.69 55.5821 327.646 56.004C327.601 56.4259 327.579 56.87 327.579 57.3141C327.579 57.9358 327.624 58.4909 327.69 58.9572C327.757 59.4235 327.867 59.801 328.045 60.0897C328.2 60.3783 328.399 60.6004 328.643 60.7558C328.887 60.889 329.197 60.9779 329.552 60.9779C329.84 60.9779 330.084 60.9334 330.284 60.8446C330.483 60.7558 330.66 60.6226 330.816 60.4671C330.971 60.3117 331.082 60.1119 331.192 59.8898C331.281 59.6678 331.37 59.4235 331.414 59.1571C331.458 58.8906 331.503 58.6242 331.525 58.3355C331.569 58.0246 331.569 57.736 331.569 57.4251Z" fill="#1FA2D8"/>
<path d="M342.187 61.3778C342.187 61.4 342.187 61.4222 342.165 61.4444C342.143 61.4666 342.143 61.4888 342.098 61.4888C342.076 61.511 342.032 61.511 341.987 61.511C341.943 61.511 341.877 61.5332 341.81 61.5332C341.744 61.5332 341.677 61.5332 341.633 61.511C341.588 61.511 341.544 61.4888 341.522 61.4888C341.5 61.4666 341.478 61.4666 341.455 61.4444C341.455 61.4222 341.433 61.4 341.433 61.3778V57.825C341.433 57.5586 341.411 57.3143 341.367 57.0701C341.322 56.848 341.234 56.6482 341.145 56.4928C341.034 56.3373 340.901 56.2041 340.746 56.1153C340.591 56.0265 340.391 55.9821 340.192 55.9821C339.926 55.9821 339.66 56.0931 339.372 56.2929C339.106 56.4928 338.795 56.8036 338.463 57.2033V61.3555C338.463 61.3778 338.463 61.4 338.441 61.4222C338.419 61.4444 338.419 61.4666 338.374 61.4666C338.352 61.4888 338.308 61.4888 338.263 61.4888C338.219 61.4888 338.153 61.511 338.086 61.511C338.02 61.511 337.953 61.511 337.909 61.4888C337.864 61.4888 337.82 61.4666 337.798 61.4666C337.776 61.4444 337.754 61.4444 337.731 61.4222C337.731 61.4 337.709 61.3778 337.709 61.3555V57.8028C337.709 57.5364 337.687 57.2921 337.643 57.0479C337.598 56.8258 337.51 56.626 337.399 56.4706C337.288 56.3151 337.155 56.1819 337 56.0931C336.845 56.0043 336.645 55.9598 336.446 55.9598C336.18 55.9598 335.914 56.0709 335.626 56.2707C335.36 56.4706 335.049 56.7814 334.739 57.1811V61.3333C334.739 61.3555 334.739 61.3778 334.717 61.4C334.695 61.4222 334.695 61.4444 334.65 61.4444C334.628 61.4666 334.584 61.4666 334.54 61.4666C334.495 61.4666 334.429 61.4888 334.362 61.4888C334.296 61.4888 334.229 61.4888 334.185 61.4666C334.141 61.4666 334.096 61.4444 334.074 61.4444C334.052 61.4222 334.03 61.4222 334.008 61.4C334.008 61.3778 333.985 61.3555 333.985 61.3333V55.538C333.985 55.5158 333.985 55.4936 334.008 55.4713C334.03 55.4491 334.03 55.4269 334.074 55.4269C334.096 55.4047 334.141 55.4047 334.185 55.4047C334.229 55.4047 334.296 55.4047 334.362 55.4047C334.429 55.4047 334.495 55.4047 334.54 55.4047C334.584 55.4047 334.628 55.4269 334.65 55.4269C334.673 55.4491 334.695 55.4491 334.695 55.4713C334.695 55.4936 334.717 55.5158 334.717 55.538V56.3595C335.049 55.9821 335.36 55.7156 335.67 55.5602C335.958 55.3825 336.268 55.3159 336.557 55.3159C336.8 55.3159 337.022 55.3381 337.199 55.4047C337.399 55.4714 337.554 55.538 337.709 55.649C337.864 55.76 337.975 55.871 338.086 56.0265C338.197 56.1819 338.263 56.3373 338.33 56.515C338.529 56.2929 338.729 56.1153 338.884 55.9598C339.061 55.8044 339.239 55.6934 339.394 55.6046C339.549 55.5158 339.704 55.4491 339.859 55.4047C340.015 55.3603 340.148 55.3381 340.303 55.3381C340.657 55.3381 340.968 55.4047 341.212 55.538C341.455 55.6712 341.655 55.8488 341.81 56.0487C341.965 56.2707 342.076 56.515 342.143 56.8036C342.209 57.0923 342.231 57.4031 342.231 57.714V61.3778H342.187Z" fill="#1FA2D8"/>
<path d="M352.539 61.3778C352.539 61.4 352.539 61.4222 352.516 61.4444C352.494 61.4666 352.494 61.4888 352.45 61.4888C352.428 61.511 352.384 61.511 352.339 61.511C352.295 61.511 352.228 61.5332 352.162 61.5332C352.095 61.5332 352.029 61.5332 351.985 61.511C351.94 61.511 351.896 61.4888 351.874 61.4888C351.852 61.4666 351.829 61.4666 351.807 61.4444C351.807 61.4222 351.785 61.4 351.785 61.3778V57.825C351.785 57.5586 351.763 57.3143 351.719 57.0701C351.674 56.848 351.586 56.6482 351.497 56.4928C351.386 56.3373 351.253 56.2041 351.098 56.1153C350.943 56.0265 350.743 55.9821 350.544 55.9821C350.278 55.9821 350.012 56.0931 349.724 56.2929C349.458 56.4928 349.147 56.8036 348.815 57.2033V61.3555C348.815 61.3778 348.815 61.4 348.793 61.4222C348.77 61.4444 348.77 61.4666 348.726 61.4666C348.704 61.4888 348.66 61.4888 348.615 61.4888C348.571 61.4888 348.504 61.511 348.438 61.511C348.371 61.511 348.305 61.511 348.261 61.4888C348.216 61.4888 348.172 61.4666 348.15 61.4666C348.128 61.4444 348.105 61.4444 348.083 61.4222C348.083 61.4 348.061 61.3778 348.061 61.3555V57.8028C348.061 57.5364 348.039 57.2921 347.995 57.0479C347.95 56.8258 347.862 56.626 347.751 56.4706C347.64 56.3151 347.507 56.1819 347.352 56.0931C347.197 56.0043 346.997 55.9598 346.798 55.9598C346.532 55.9598 346.266 56.0709 345.977 56.2707C345.711 56.4706 345.401 56.7814 345.091 57.1811V61.3333C345.091 61.3555 345.091 61.3778 345.069 61.4C345.046 61.4222 345.046 61.4444 345.002 61.4444C344.98 61.4666 344.936 61.4666 344.891 61.4666C344.847 61.4666 344.78 61.4888 344.714 61.4888C344.647 61.4888 344.581 61.4888 344.537 61.4666C344.492 61.4666 344.448 61.4444 344.426 61.4444C344.404 61.4222 344.381 61.4222 344.359 61.4C344.359 61.3778 344.337 61.3555 344.337 61.3333V55.538C344.337 55.5158 344.337 55.4936 344.359 55.4713C344.381 55.4491 344.381 55.4269 344.426 55.4269C344.448 55.4047 344.492 55.4047 344.537 55.4047C344.581 55.4047 344.647 55.4047 344.714 55.4047C344.78 55.4047 344.847 55.4047 344.891 55.4047C344.936 55.4047 344.98 55.4269 345.002 55.4269C345.024 55.4491 345.046 55.4491 345.046 55.4713C345.046 55.4936 345.069 55.5158 345.069 55.538V56.3595C345.401 55.9821 345.711 55.7156 346.022 55.5602C346.31 55.3825 346.62 55.3159 346.908 55.3159C347.152 55.3159 347.374 55.3381 347.551 55.4047C347.751 55.4714 347.906 55.538 348.061 55.649C348.216 55.76 348.327 55.871 348.438 56.0265C348.549 56.1819 348.615 56.3373 348.682 56.515C348.881 56.2929 349.081 56.1153 349.236 55.9598C349.413 55.8044 349.591 55.6934 349.746 55.6046C349.901 55.5158 350.056 55.4491 350.211 55.4047C350.366 55.3603 350.499 55.3381 350.655 55.3381C351.009 55.3381 351.32 55.4047 351.563 55.538C351.807 55.6712 352.007 55.8488 352.162 56.0487C352.317 56.2707 352.428 56.515 352.494 56.8036C352.561 57.0923 352.583 57.4031 352.583 57.714V61.3778H352.539Z" fill="#1FA2D8"/>
<path d="M374.417 205.041C371.624 205.041 369.341 202.754 369.341 199.956V42.6146C369.341 39.8169 371.624 37.5298 374.417 37.5298C377.21 37.5298 379.493 39.8169 379.493 44.2356V201.599C379.493 202.754 377.21 205.041 374.417 205.041Z" fill="#1FA2D8"/>
<path d="M380.801 120.686V137.628L385.123 138.693C388.204 139.448 390.421 142.157 390.554 145.333L395.807 269.878H405.228L400.529 132.609C400.44 129.701 398.578 127.147 395.83 126.148L380.801 120.686Z" fill="#1FA2D8"/>
<path d="M427.084 281.447H375.658C374.195 281.447 372.998 280.247 372.998 278.782V272.542C372.998 271.077 374.195 269.878 375.658 269.878H427.084C428.547 269.878 429.744 271.077 429.744 272.542V278.782C429.744 280.247 428.547 281.447 427.084 281.447Z" fill="#1FA2D8"/>
<path d="M141.692 382.721V389.005C141.803 391.248 150.359 391.004 150.359 391.004C163.637 395.378 194.47 396.111 194.47 396.111C256.137 395.156 247.98 384.586 247.98 384.586L141.692 382.721Z" fill="#329DD8" stroke="white" stroke-width="0.2" stroke-miterlimit="10"/>
<path d="M123.982 345.04C118.152 360.45 120.125 365.424 120.125 365.424C121.056 370.553 135.818 368.533 135.818 368.533V381.234H117.465C104.054 380.146 107.179 367.045 107.179 367.045C108.443 359.051 115.979 332.961 120.701 317.063L120.723 317.018L135.841 263.017L137.858 256.6L137.503 279.781C134.644 289.396 134.267 308.98 134.267 308.98C132.759 322.281 129.479 331.429 129.479 331.429L123.982 345.04Z" fill="#329DD8" stroke="white" stroke-width="0.2" stroke-miterlimit="10"/>
<path d="M133.491 366.157C124.469 368.421 131.274 379.124 131.274 379.124C131.917 381.011 133.136 382.677 134.732 383.898C136.328 385.097 138.257 385.808 140.274 385.919C147.012 387.029 254.209 386.918 254.209 386.918C257.489 386.629 260.548 385.097 262.743 382.655C264.937 380.212 266.134 377.015 266.09 373.728C266.201 358.874 250.662 359.762 250.662 359.762C211.472 357.919 172.238 360.073 133.491 366.157Z" fill="#329DD8" stroke="white" stroke-width="0.2" stroke-miterlimit="10"/>
<path d="M190.148 397.087V486.883H199.879V397.265C198.217 397.554 194.847 397.909 190.148 397.087Z" fill="#329DD8" stroke="white" stroke-width="0.2" stroke-miterlimit="10"/>
<path d="M124.314 512.04C125.533 510.575 126.176 508.71 126.154 506.8C126.619 502.892 129.102 502.47 129.102 502.47L147.522 498.407C148.054 498.451 148.608 498.407 149.118 498.251C149.628 498.096 150.116 497.83 150.515 497.474C150.936 497.119 151.268 496.697 151.512 496.231C151.756 495.742 151.911 495.232 151.933 494.699V492.767H154.349C153.751 492.101 153.374 491.279 153.219 490.391C153.086 489.503 153.197 488.615 153.551 487.793C153.906 486.972 154.505 486.283 155.258 485.795C156.012 485.306 156.876 485.04 157.763 485.018C167.184 485.306 176.516 486.816 185.537 489.525C191.899 491.524 190.059 486.861 190.059 486.861L194.958 486.017L199.857 486.861C199.857 486.861 198.017 491.546 204.379 489.525C213.401 486.816 222.733 485.306 232.153 485.018C233.04 485.04 233.927 485.306 234.658 485.795C235.412 486.283 235.988 486.994 236.365 487.793C236.72 488.615 236.853 489.525 236.697 490.391C236.564 491.279 236.165 492.101 235.567 492.767H237.983V494.699C238.027 495.232 238.16 495.765 238.404 496.231C238.648 496.719 238.981 497.141 239.402 497.474C239.823 497.83 240.288 498.074 240.798 498.251C241.308 498.407 241.862 498.474 242.394 498.407L260.814 502.47C260.814 502.47 263.297 502.892 263.763 506.8C263.74 508.71 264.383 510.553 265.602 512.04C265.602 512.04 266.888 513.639 265.824 519.279C265.669 520.323 265.115 521.255 264.295 521.899C263.452 522.543 262.41 522.81 261.369 522.699C261.369 522.699 255.45 523.054 255.45 519.412C255.45 519.412 254.852 511.774 257.135 509.109C239.313 505.646 221.247 503.581 203.093 502.937C203.093 502.937 200.877 502.67 200.965 507.489C200.965 507.555 200.965 512.174 198.283 512.174V521.744C198.283 521.744 200.744 523.054 199.303 531.136C199.303 531.136 198.483 534.978 196.842 534.978H193.052C191.412 534.978 190.591 531.136 190.591 531.136C189.173 523.032 191.611 521.744 191.611 521.744V512.174C188.929 512.174 188.929 507.577 188.929 507.489C189.018 502.67 186.801 502.937 186.801 502.937C168.647 503.603 150.581 505.668 132.759 509.109C135.043 511.752 134.422 519.412 134.422 519.412C134.422 523.032 128.503 522.699 128.503 522.699C127.462 522.832 126.42 522.543 125.577 521.899C124.735 521.255 124.203 520.323 124.048 519.279C123.095 513.639 124.314 512.04 124.314 512.04Z" fill="#329DD8" stroke="white" stroke-width="0.2" stroke-miterlimit="10"/>
<path d="M139.742 200.977L138.124 298.011C138.124 298.011 137.88 305.983 138.944 312.622C138.944 312.622 140.784 326.5 140.385 331.496C140.385 331.496 139.875 335.914 142.291 335.981C142.291 335.981 145.505 336.469 147.766 332.251C147.766 332.251 168.735 276.473 160.224 237.082C160.224 237.082 153.729 198.89 151.002 195.36C151.002 195.36 149.828 191.674 146.746 192.406C146.724 192.451 139.853 193.605 139.742 200.977Z" fill="#329DD8" stroke="white" stroke-width="0.2" stroke-miterlimit="10"/>
<path d="M263.386 277.982L323.634 273.23V281.668L263.386 284.533" fill="#CCCCCB"/>
<path d="M263.386 277.982L323.634 273.23V281.668L263.386 284.533" stroke="white" stroke-width="0.2" stroke-miterlimit="10"/>
<path d="M434 285.954H246.85V298.944H434V285.954Z" fill="#CCCCCB" stroke="white" stroke-width="0.2" stroke-miterlimit="10"/>
</g>
<defs>
<clipPath id="clip0">
<rect width="335" height="502" fill="white" transform="translate(99 33)"/>
</clipPath>
</defs>
</svg>
