<svg width="28" height="31" viewBox="0 0 28 31" fill="none" xmlns="http://www.w3.org/2000/svg">
<g clip-path="url(#clip0)">
<path d="M1.10956 30.8714L9.46387 25.1654H24.4103C26.4009 25.1654 28 23.5493 28 21.5374V3.62805C28 1.61613 26.4009 0 24.4103 0H3.58974C1.59907 0 0 1.61613 0 3.62805V18.7999V21.5044V30.2447C0 30.8714 0.652681 31.2012 1.10956 30.8714ZM15.1748 18.8329C15.1748 19.2286 14.8811 19.5255 14.4895 19.5255H12.7273C12.3357 19.5255 12.042 19.2286 12.042 18.8329V17.6785C12.042 17.2827 12.3357 16.9858 12.7273 16.9858H14.4895C14.8811 16.9858 15.1748 17.2827 15.1748 17.6785V18.8329ZM10.5734 6.62943C11.4219 5.96978 12.5315 5.63996 13.9021 5.63996C15.3706 5.63996 16.5455 6.00277 17.3939 6.76136C18.2424 7.51995 18.6667 8.5424 18.6667 9.79572C18.6667 10.5873 18.4382 11.3129 17.9814 11.9725C17.5245 12.6322 16.9371 13.1599 16.2191 13.5227C15.8275 13.7866 15.5664 14.0834 15.4033 14.3803C15.3054 14.5781 15.2401 14.842 15.2075 15.1718C15.1748 15.4357 14.979 15.6006 14.7179 15.6006H12.5641C12.2704 15.6006 12.042 15.3697 12.0746 15.0729C12.1399 14.4462 12.2704 13.9845 12.5315 13.6217C12.8252 13.1929 13.38 12.6652 14.1958 12.1045C14.62 11.8406 14.9464 11.5108 15.1748 11.115C15.4033 10.7192 15.5338 10.2905 15.5338 9.76274C15.5338 9.23502 15.4033 8.80626 15.1096 8.50941C14.8159 8.17959 14.4242 8.04766 13.9021 8.04766C13.4779 8.04766 13.1515 8.17959 12.8578 8.44345C12.6946 8.60836 12.5641 8.80626 12.4988 9.07011C12.4009 9.39994 12.1072 9.59783 11.7809 9.56485H9.79021C9.52914 9.56485 9.33333 9.33397 9.36597 9.1031C9.43124 8.01468 9.82284 7.19013 10.5734 6.62943Z" fill="#1BA2D9"/>
</g>
<defs>
<clipPath id="clip0">
<rect width="28" height="31" fill="white"/>
</clipPath>
</defs>
</svg>
