<svg width="52" height="40" viewBox="0 0 52 40" fill="none" xmlns="http://www.w3.org/2000/svg">
<path d="M40.6557 23.8525V36.9241C40.6559 37.3267 40.5774 37.725 40.4246 38.097C40.2718 38.4689 40.0477 38.807 39.7652 39.0917C39.4827 39.3764 39.1471 39.6022 38.778 39.7562C38.4088 39.9103 38.0131 39.9896 37.6135 39.9896H31.7667C30.9595 39.9896 30.1854 39.6666 29.6147 39.0917C29.0439 38.5168 28.7233 37.7372 28.7233 36.9241V30.9341C28.7233 30.121 28.4026 29.3411 27.8318 28.7662C27.2611 28.1913 26.487 27.8683 25.6798 27.8683H23.4783C22.6711 27.8683 21.897 28.1913 21.3262 28.7662C20.7555 29.3411 20.4348 30.121 20.4348 30.9341V36.9241C20.4348 37.7372 20.1142 38.5168 19.5434 39.0917C18.9726 39.6666 18.1986 39.9896 17.3914 39.9896H11.5435C10.7363 39.9896 9.96206 39.6666 9.3913 39.0917C8.82053 38.5168 8.49988 37.7372 8.49988 36.9241V23.8525C8.49945 23.417 8.59152 22.9865 8.76977 22.5898C8.94802 22.1931 9.20836 21.8395 9.53343 21.5524L9.77733 21.357L22.1986 11.4448L23.2618 10.5966C23.6715 10.3996 24.1197 10.2974 24.5737 10.2974C25.0276 10.2974 25.4758 10.3996 25.8855 10.5966L26.9464 11.4436L39.3821 21.3655L39.6045 21.5427C39.9339 21.8292 40.1983 22.1837 40.3797 22.5822C40.5612 22.9808 40.6552 23.414 40.6557 23.8525Z" fill="#1BA2D9"/>
<path d="M23.1779 0.492541L0.976669 18.2065C0.507029 18.5814 0.204405 19.1289 0.135487 19.7286C0.0665679 20.3282 0.236901 20.9308 0.609069 21.4039C0.662461 21.4725 0.720081 21.5379 0.781545 21.5993C1.17341 21.994 1.69566 22.2298 2.2489 22.262C2.80213 22.2943 3.34786 22.1207 3.78231 21.7742L23.0886 6.37115C23.4878 6.05271 23.9822 5.87949 24.4915 5.87949C25.0007 5.87949 25.495 6.05271 25.8942 6.37115L45.1994 21.7742C45.6339 22.1207 46.1796 22.2943 46.7329 22.262C47.2861 22.2298 47.8082 21.994 48.2001 21.5993L48.2798 21.5188C48.7035 21.092 48.9417 20.513 48.9417 19.9093C48.9417 19.3056 48.7035 18.7266 48.2798 18.2998C48.2182 18.2385 48.1536 18.1805 48.086 18.126L25.9858 0.492541C25.5864 0.1735 25.0915 0 24.5818 0C24.072 0 23.5773 0.1735 23.1779 0.492541Z" fill="#1BA2D9"/>
</svg>
