<?xml version="1.0" encoding="utf-8"?>
<!-- Generator: Adobe Illustrator 24.3.0, SVG Export Plug-In . SVG Version: 6.00 Build 0)  -->
<svg version="1.1" id="Layer_1" xmlns="http://www.w3.org/2000/svg" xmlns:xlink="http://www.w3.org/1999/xlink" x="0px" y="0px"
	 viewBox="0 0 196 255" style="enable-background:new 0 0 196 255;" xml:space="preserve">
<style type="text/css">
	.st0{fill:#FFFFFF;}
</style>
<path class="st0" d="M33.8,18.5c0-0.9-0.3-1.8-0.8-2.5s-1.2-1.3-2-1.7c-0.8-0.3-1.7-0.4-2.6-0.3c-0.9,0.2-1.7,0.6-2.3,1.2
	s-1.1,1.4-1.2,2.3c-0.2,0.9-0.1,1.8,0.3,2.6c0.3,0.8,0.9,1.5,1.7,2c0.7,0.5,1.6,0.8,2.5,0.8c1.2,0,2.3-0.5,3.2-1.3
	C33.3,20.9,33.8,19.7,33.8,18.5z"/>
<path class="st0" d="M26.2,39.3c0-1-0.3-2.1-0.9-2.9c-0.6-0.9-1.4-1.5-2.3-1.9c-1-0.4-2-0.5-3-0.3c-1,0.2-1.9,0.7-2.7,1.4
	s-1.2,1.7-1.4,2.7c-0.2,1-0.1,2.1,0.3,3c0.4,1,1.1,1.8,1.9,2.4c0.9,0.6,1.9,0.9,2.9,0.9c1.4,0,2.7-0.6,3.7-1.5S26.2,40.7,26.2,39.3z
	"/>
<path class="st0" d="M22.8,59.1c0-1.2-0.3-2.3-1-3.3c-0.7-1-1.6-1.7-2.7-2.2c-1.1-0.4-2.3-0.6-3.4-0.3c-1.1,0.2-2.2,0.8-3,1.6
	c-0.8,0.8-1.4,1.9-1.6,3c-0.2,1.2-0.1,2.3,0.3,3.4c0.4,1.1,1.2,2,2.2,2.7c1,0.7,2.1,1,3.3,1c1.6,0,3.1-0.6,4.2-1.7
	C22.2,62.2,22.8,60.7,22.8,59.1z"/>
<path class="st0" d="M24.3,78.3c0-1.3-0.4-2.7-1.1-3.8c-0.7-1.1-1.8-2-3-2.5c-1.2-0.5-2.6-0.6-3.9-0.4c-1.3,0.3-2.5,0.9-3.5,1.9
	c-0.9,0.9-1.6,2.2-1.9,3.5c-0.3,1.3-0.1,2.7,0.4,3.9c0.5,1.2,1.4,2.3,2.5,3c1.1,0.7,2.4,1.1,3.8,1.1c1.8,0,3.5-0.7,4.8-2
	C23.6,81.8,24.3,80.1,24.3,78.3z"/>
<path class="st0" d="M29.5,98.5c0-1.3-0.4-2.7-1.1-3.8c-0.7-1.1-1.8-2-3-2.5c-1.2-0.5-2.6-0.6-3.9-0.4c-1.3,0.3-2.5,0.9-3.5,1.9
	c-0.9,0.9-1.6,2.2-1.9,3.5c-0.3,1.3-0.1,2.7,0.4,3.9c0.5,1.2,1.4,2.3,2.5,3c1.1,0.7,2.4,1.1,3.8,1.1c1.8,0,3.5-0.7,4.8-2
	C28.8,102.1,29.5,100.3,29.5,98.5z"/>
<path class="st0" d="M37.9,117.7c0-1.5-0.5-3-1.3-4.3c-0.9-1.3-2.1-2.3-3.5-2.9c-1.4-0.6-3-0.7-4.5-0.4c-1.5,0.3-2.9,1-4,2.1
	c-1.1,1.1-1.8,2.5-2.1,4c-0.3,1.5-0.1,3.1,0.4,4.5s1.6,2.6,2.9,3.5c1.3,0.9,2.8,1.3,4.3,1.3c2.1,0,4-0.8,5.5-2.3
	C37.1,121.8,37.9,119.8,37.9,117.7z"/>
<path class="st0" d="M24.6,235.8c-0.1,0.9,0.1,1.8,0.5,2.6c0.4,0.8,1,1.4,1.8,1.9c0.8,0.4,1.7,0.6,2.6,0.5c0.9-0.1,1.7-0.4,2.4-1
	c0.7-0.6,1.2-1.3,1.5-2.2c0.3-0.9,0.3-1.8,0-2.6c-0.2-0.9-0.7-1.6-1.4-2.2c-0.7-0.6-1.5-0.9-2.4-1c-0.6-0.1-1.2,0-1.8,0.1
	c-0.6,0.2-1.1,0.4-1.6,0.8c-0.5,0.4-0.8,0.8-1.1,1.3C24.8,234.7,24.7,235.2,24.6,235.8z"/>
<path class="st0" d="M34.5,216c-0.1,1,0.1,2.1,0.5,3c0.5,0.9,1.2,1.7,2.1,2.2c0.9,0.5,1.9,0.7,3,0.6c1-0.1,2-0.5,2.8-1.1
	c0.8-0.6,1.4-1.5,1.7-2.5c0.3-1,0.3-2,0-3c-0.3-1-0.9-1.9-1.6-2.6c-0.8-0.7-1.8-1.1-2.8-1.2c-0.7-0.1-1.4,0-2,0.2
	c-0.7,0.2-1.3,0.5-1.8,0.9c-0.5,0.4-1,1-1.3,1.6C34.8,214.7,34.6,215.3,34.5,216z"/>
<path class="st0" d="M40.1,196.8c-0.1,1.2,0.1,2.3,0.6,3.4c0.5,1,1.4,1.9,2.4,2.5c1,0.6,2.2,0.8,3.4,0.7c1.2-0.1,2.3-0.5,3.2-1.3
	c0.9-0.7,1.6-1.7,2-2.8c0.4-1.1,0.4-2.3,0.1-3.5c-0.3-1.1-1-2.1-1.9-2.9c-0.9-0.8-2-1.2-3.2-1.4c-0.8-0.1-1.6,0-2.3,0.2
	c-0.7,0.2-1.4,0.6-2.1,1.1c-0.6,0.5-1.1,1.1-1.5,1.8C40.4,195.2,40.2,196,40.1,196.8z"/>
<path class="st0" d="M40.8,177.5c-0.2,1.3,0.1,2.7,0.7,3.9s1.6,2.2,2.7,2.8c1.2,0.7,2.5,0.9,3.8,0.8c1.3-0.1,2.6-0.6,3.7-1.5
	c1-0.8,1.8-2,2.2-3.2c0.4-1.3,0.4-2.7,0.1-3.9c-0.4-1.3-1.1-2.4-2.1-3.3c-1-0.9-2.3-1.4-3.6-1.6c-1.8-0.2-3.6,0.3-5,1.4
	C41.9,174.1,41,175.7,40.8,177.5z"/>
<path class="st0" d="M37.8,156.8c-0.2,1.3,0.1,2.7,0.7,3.9c0.6,1.2,1.6,2.2,2.7,2.8c1.2,0.6,2.5,0.9,3.8,0.8
	c1.3-0.1,2.6-0.6,3.7-1.5c1-0.8,1.8-2,2.2-3.2c0.4-1.3,0.4-2.7,0.1-3.9c-0.4-1.3-1.1-2.4-2.1-3.3s-2.3-1.4-3.6-1.6
	c-1.8-0.2-3.6,0.3-5,1.4C39,153.4,38.1,155,37.8,156.8z"/>
<path class="st0" d="M31.6,136.8c-0.2,1.5,0.1,3.1,0.8,4.4s1.8,2.5,3.1,3.2s2.9,1.1,4.4,0.9c1.5-0.1,3-0.7,4.2-1.7
	c1.2-1,2.1-2.3,2.6-3.7c0.5-1.5,0.5-3,0.1-4.5c-0.4-1.5-1.3-2.8-2.4-3.8c-1.2-1-2.6-1.6-4.1-1.8c-1-0.1-2,0-3,0.3
	c-1,0.3-1.9,0.8-2.7,1.4c-0.8,0.6-1.5,1.4-2,2.3C32.1,134.8,31.8,135.7,31.6,136.8z"/>
<path class="st0" d="M133.3,104.8c-1-0.1-1.7-0.1-2.3-0.1c-1.9-0.1-3.8,0.3-5.5,1.2c-0.6,0.3-1,0.7-1.3,1.3
	c-0.3,0.5-0.5,1.2-0.4,1.8c0,0.4,0.1,0.8,0.2,1.1c0.2,0.4,0.4,0.7,0.7,0.9c0.8,0.6,1.8,1,2.8,0.9c0.8,0,1.6-0.1,2.3-0.5
	c0.7-0.3,1.4-0.8,1.9-1.4c1.1-1.2,1.7-2.8,1.7-4.5C133.3,105.3,133.3,105,133.3,104.8L133.3,104.8z M133.3,104.8
	c-1-0.1-1.7-0.1-2.3-0.1c-1.9-0.1-3.8,0.3-5.5,1.2c-0.6,0.3-1,0.7-1.3,1.3c-0.3,0.5-0.5,1.2-0.4,1.8c0,0.4,0.1,0.8,0.2,1.1
	c0.2,0.4,0.4,0.7,0.7,0.9c0.8,0.6,1.8,1,2.8,0.9c0.8,0,1.6-0.1,2.3-0.5c0.7-0.3,1.4-0.8,1.9-1.4c1.1-1.2,1.7-2.8,1.7-4.5
	C133.3,105.3,133.3,105,133.3,104.8L133.3,104.8z M133.3,104.8c-1-0.1-1.7-0.1-2.3-0.1c-1.9-0.1-3.8,0.3-5.5,1.2
	c-0.6,0.3-1,0.7-1.3,1.3c-0.3,0.5-0.5,1.2-0.5,1.8c0,0.4,0.1,0.8,0.2,1.1c0.2,0.4,0.4,0.7,0.7,0.9c0.8,0.6,1.8,1,2.8,0.9
	c0.8,0,1.6-0.1,2.3-0.5c0.7-0.3,1.4-0.8,1.9-1.4c1.1-1.2,1.7-2.8,1.7-4.5C133.3,105.3,133.3,105,133.3,104.8L133.3,104.8z
	 M133.3,104.8c-1-0.1-1.7-0.1-2.3-0.1c-1.9-0.1-3.8,0.3-5.5,1.2c-0.6,0.3-1,0.7-1.3,1.3c-0.3,0.5-0.5,1.2-0.5,1.8
	c0,0.4,0.1,0.8,0.2,1.1c0.2,0.4,0.4,0.7,0.7,0.9c0.8,0.6,1.8,1,2.8,0.9c0.8,0,1.6-0.1,2.3-0.5c0.7-0.3,1.4-0.8,1.9-1.4
	c1.1-1.2,1.7-2.8,1.7-4.5C133.3,105.3,133.3,105,133.3,104.8L133.3,104.8z M112.4,133.6c-0.4-0.5-0.9-0.9-1.4-1.1
	c-0.6-0.3-1.2-0.4-1.8-0.4c-0.6,0-1.2,0.1-1.8,0.4c-0.6,0.3-1,0.7-1.4,1.2c-0.9,1.1-1.4,2.8-1.4,5.2c0,2.5,0.5,4.4,1.4,5.4
	c0.4,0.5,0.9,0.9,1.4,1.1c0.6,0.3,1.2,0.4,1.8,0.4c0.6,0,1.3-0.1,1.8-0.4c0.6-0.3,1.1-0.7,1.4-1.2c0.9-1.1,1.4-2.9,1.4-5.3
	C113.8,136.4,113.3,134.6,112.4,133.6L112.4,133.6z M133.3,104.8c-1-0.1-1.7-0.1-2.3-0.1c-1.9-0.1-3.8,0.3-5.5,1.2
	c-0.6,0.3-1,0.7-1.3,1.3c-0.3,0.5-0.5,1.2-0.4,1.8c0,0.4,0.1,0.8,0.2,1.1c0.2,0.4,0.4,0.7,0.7,0.9c0.8,0.6,1.8,1,2.8,0.9
	c0.8,0,1.6-0.1,2.3-0.5c0.7-0.3,1.4-0.8,1.9-1.4c1.1-1.2,1.7-2.8,1.7-4.5C133.3,105.3,133.3,105,133.3,104.8L133.3,104.8z
	 M133.3,104.8c-1-0.1-1.7-0.1-2.3-0.1c-1.9-0.1-3.8,0.3-5.5,1.2c-0.6,0.3-1,0.7-1.3,1.3c-0.3,0.5-0.5,1.2-0.4,1.8
	c0,0.4,0.1,0.8,0.2,1.1c0.2,0.4,0.4,0.7,0.7,0.9c0.8,0.6,1.8,1,2.8,0.9c0.8,0,1.6-0.1,2.3-0.5c0.7-0.3,1.4-0.8,1.9-1.4
	c1.1-1.2,1.7-2.8,1.7-4.5C133.3,105.3,133.3,105,133.3,104.8L133.3,104.8z M112.4,133.6c-0.4-0.5-0.9-0.9-1.4-1.1
	c-0.6-0.3-1.2-0.4-1.8-0.4c-0.6,0-1.2,0.1-1.8,0.4c-0.6,0.3-1,0.7-1.4,1.2c-0.9,1.1-1.4,2.8-1.4,5.2c0,2.5,0.5,4.4,1.4,5.4
	c0.4,0.5,0.9,0.9,1.4,1.1c0.6,0.3,1.2,0.4,1.8,0.4c0.6,0,1.3-0.1,1.8-0.4c0.6-0.3,1.1-0.7,1.4-1.2c0.9-1.1,1.4-2.9,1.4-5.3
	C113.8,136.4,113.3,134.6,112.4,133.6L112.4,133.6z M109.1,132c-0.6,0-1.2,0.1-1.8,0.4c-0.6,0.3-1,0.7-1.4,1.2
	c-0.9,1.1-1.4,2.8-1.4,5.2c0,2.5,0.5,4.4,1.4,5.4c0.4,0.5,0.9,0.9,1.4,1.1c0.6,0.3,1.2,0.4,1.8,0.4c0.6,0,1.3-0.1,1.8-0.4
	c0.6-0.3,1.1-0.7,1.4-1.2c0.9-1.1,1.4-2.9,1.4-5.3c0-2.4-0.5-4.2-1.4-5.3c-0.4-0.5-0.9-0.9-1.4-1.1
	C110.4,132.2,109.8,132.1,109.1,132L109.1,132z M131,104.7c-1.9-0.1-3.8,0.3-5.5,1.2c-0.6,0.3-1,0.7-1.3,1.3
	c-0.3,0.5-0.5,1.2-0.4,1.8c0,0.4,0.1,0.8,0.2,1.1c0.2,0.4,0.4,0.7,0.7,0.9c0.8,0.6,1.8,1,2.8,0.9c0.8,0,1.6-0.1,2.3-0.5
	c0.7-0.3,1.4-0.8,1.9-1.4c1.1-1.2,1.7-2.8,1.7-4.5c0-0.2,0-0.4,0-0.6C132.3,104.7,131.5,104.7,131,104.7L131,104.7z M152.3,132.6
	c-0.7-0.5-1.5-0.8-2.4-0.8c-0.6,0-1.2,0.1-1.8,0.3c-0.6,0.2-1.1,0.6-1.5,1c-0.8,0.8-1.3,1.9-1.4,3.1h8.9c-0.1-0.6-0.2-1.3-0.4-1.9
	C153.4,133.7,152.9,133.1,152.3,132.6L152.3,132.6z M175.9,147.8c-1.8,1.2-3.9,1.9-6.1,1.8c-4.8,0-7.8-2-8.9-5.9l-0.2-0.7l4.1-0.9
	l0.2,0.6c0.5,2.1,2.2,3.1,5.2,3.1c1,0,1.9-0.2,2.7-0.7c0.3-0.2,0.6-0.4,0.7-0.7c0.2-0.3,0.3-0.7,0.2-1c0-0.7-0.3-1.7-2.7-2.2l-4-0.8
	c-1.5-0.2-2.9-0.9-4-1.9c-0.5-0.5-0.9-1.1-1.2-1.8c-0.3-0.7-0.4-1.4-0.4-2.1c0-0.9,0.2-1.7,0.5-2.5c0.4-0.8,0.9-1.5,1.6-2
	c1.6-1.2,3.5-1.8,5.5-1.8c4.4,0,7.2,1.8,8.2,5.3l0.2,0.7l-4,0.9l-0.2-0.5c-0.7-1.7-2-2.5-4.1-2.5c-0.9,0-1.8,0.2-2.6,0.6
	c-0.3,0.1-0.5,0.4-0.6,0.6c-0.2,0.3-0.2,0.6-0.2,0.9c0,0.7,0.2,1.6,2.4,2l3.7,0.6c4.2,0.8,6.3,2.9,6.3,6.3c0,0.9-0.2,1.8-0.6,2.7
	C177.3,146.6,176.7,147.3,175.9,147.8L175.9,147.8z M159.5,93h3.7l0.2-5.6h4.4V93h4.7v4h-4.7v12.3c0,1.7,0.8,2.5,2.6,2.5
	c0.8,0,1.6-0.1,2.4-0.2l0.9-0.1v4.1l-0.6,0.1c-1,0.2-2,0.2-3.1,0.3c-4.4,0-6.7-2.4-6.7-7.1V97h-3.7L159.5,93z M158.7,139.8h-13.7
	c0.1,2.3,0.6,3.8,1.5,4.6c0.9,0.8,2.1,1.3,3.4,1.3c2.1,0,3.6-1.1,4.5-3.3l0.2-0.5l4,0.8l-0.2,0.7c-0.6,1.7-1.7,3.3-3.2,4.3
	c-1.6,1.2-3.5,1.8-5.5,1.7c-1.3,0-2.5-0.2-3.7-0.7c-1.2-0.5-2.2-1.3-3-2.3c-1.8-2.1-2.7-4.8-2.6-7.6c-0.1-2.8,0.8-5.6,2.7-7.8
	c0.8-1,1.9-1.7,3-2.3c1.2-0.5,2.4-0.8,3.7-0.7c1.2,0,2.4,0.2,3.5,0.7c1.1,0.5,2.1,1.2,2.9,2.1c1.6,1.8,2.4,4.5,2.5,8.1L158.7,139.8z
	 M133.8,115.3l-0.1-0.6c-0.1-0.5-0.2-1.1-0.2-1.6c-0.8,0.9-1.9,1.7-3,2.2c-1.2,0.5-2.4,0.7-3.7,0.6c-1.1,0.1-2.1-0.1-3.2-0.4
	c-1-0.4-1.9-0.9-2.7-1.6c-0.7-0.6-1.2-1.4-1.6-2.3c-0.4-0.9-0.5-1.8-0.5-2.7c0-1.1,0.3-2.3,0.8-3.3c0.5-1,1.3-1.9,2.2-2.5
	c1.9-1.5,5-2.2,9.5-2.2c0.5,0,1.1,0,2,0.1c0-0.9-0.1-1.7-0.3-2.6c-0.1-0.3-0.3-0.6-0.5-0.8c-0.2-0.2-0.5-0.4-0.8-0.6
	c-0.9-0.4-1.9-0.6-2.9-0.6c-3.9,0-4.7,1.8-5,3.2l-0.2,0.7l-4.4-0.8l0.1-0.8c0.8-4.2,4.1-6.3,9.9-6.3c3,0,5.3,0.7,6.6,2.1
	c1.4,1.4,2,3.7,2,7.1v8.8c0,1.3,0.1,2.6,0.4,3.9l0.2,0.9H133.8z M131.5,149.6h-4l-7.2-20.3h4.7l4.8,14l4.7-14h4L131.5,149.6z
	 M115.7,146.5c-0.8,1-1.9,1.8-3,2.3c-1.2,0.5-2.4,0.8-3.7,0.7c-1.3,0.1-2.5-0.2-3.7-0.8c-1.2-0.6-2.1-1.4-2.9-2.4
	c-1.6-2.2-2.4-4.9-2.3-7.6c-0.1-2.8,0.8-5.5,2.6-7.6c0.8-0.9,1.8-1.7,3-2.2s2.4-0.8,3.6-0.7c1.3-0.1,2.5,0.2,3.7,0.7
	c1.2,0.5,2.2,1.3,3,2.3c1.7,2.1,2.5,4.8,2.4,7.5C118.4,141.7,117.5,144.4,115.7,146.5L115.7,146.5z M98.1,149.6h-4.4v-19.2
	l-7.2,19.2h-3.1l-7.2-19.3v19.3h-4v-26.9H78l7.2,19.2l7.1-19.2h5.8L98.1,149.6z M56.9,107.3l-0.3-0.8l4.6-1l0.2,0.6
	c1.2,3.5,3.7,5.2,7.6,5.2c1.6,0.1,3.2-0.3,4.5-1.3c0.5-0.4,0.8-0.9,1.1-1.4c0.2-0.6,0.4-1.2,0.3-1.8c0-0.4-0.1-0.9-0.2-1.3
	c-0.2-0.4-0.4-0.8-0.8-1.1c-0.8-0.6-1.7-1.1-2.7-1.3l-5.6-1.4c-1.3-0.3-2.6-0.8-3.8-1.4c-1.1-0.7-2-1.6-2.6-2.7
	c-0.7-1.3-1.1-2.7-1.1-4.1c0-1.2,0.2-2.4,0.7-3.5c0.5-1.1,1.3-2,2.2-2.7c2.1-1.6,4.7-2.4,7.3-2.3c5.4,0,9,2.5,10.7,7.4l0.2,0.8
	l-4.7,1.4l-0.2-0.8c-0.1-0.7-0.4-1.3-0.8-1.9c-0.4-0.6-0.9-1-1.5-1.4c-1.2-0.7-2.6-1.1-4-1.1c-1.3,0-2.6,0.4-3.7,1.1
	c-0.5,0.3-0.8,0.7-1.1,1.2c-0.3,0.5-0.4,1.1-0.4,1.6c0,0.6,0,2.6,4,3.5l5.2,1.3c5.2,1.2,7.8,4.1,7.8,8.5c0,1.3-0.2,2.5-0.7,3.6
	c-0.5,1.1-1.3,2.2-2.2,3c-1.9,1.7-4.7,2.6-8.1,2.6C63,115.8,58.9,113,56.9,107.3L56.9,107.3z M84.8,93h4.2v2.2
	c0.7-0.9,1.5-1.6,2.5-2.1s2.1-0.7,3.2-0.7c1.6,0,3.1,0.6,4.3,1.6c0.7,0.6,1.2,1.4,1.6,2.2c0.6-1.2,1.5-2.2,2.7-2.8
	c1.1-0.7,2.4-1,3.8-1c1.5,0,3,0.4,4.2,1.4c1.1,0.8,1.9,1.9,2.3,3.1c0.4,1.5,0.6,3.1,0.5,4.7v13.7h-4.6v-13.7c0-0.9-0.1-1.9-0.3-2.8
	c-0.2-0.6-0.6-1.1-1.1-1.4c-0.6-0.4-1.3-0.7-2-0.7c-0.6,0-1.1,0.2-1.7,0.4c-0.5,0.3-1,0.6-1.4,1c-0.5,0.6-1,1.4-1.2,2.2
	c-0.3,0.8-0.4,1.6-0.3,2.5v12.5h-4.6v-14.4c0.1-0.6,0-1.2-0.2-1.8c-0.2-0.6-0.5-1.1-0.9-1.6c-0.6-0.6-1.4-0.9-2.3-0.9
	c-0.6,0-1.2,0.1-1.7,0.4c-0.5,0.3-1,0.6-1.3,1.1c-0.9,1.1-1.4,2.5-1.4,4v13.2h-4.5L84.8,93z M143.1,93h4.3v2.6
	c0.5-0.8,1.1-1.5,1.9-2.1c1-0.7,2.2-1.1,3.5-1.1c0.4,0,0.8,0,1.4,0.1l0.7,0.1V97h-1.4c-0.7,0-1.5,0.1-2.1,0.4
	c-0.7,0.3-1.3,0.7-1.7,1.3c-1.1,1.4-1.7,3.1-1.7,4.8v11.7h-4.7L143.1,93z M90.4,27.1c-15.2,0-30.2,3.7-43.7,10.8
	c-2.9,1.5-5.7,3.1-8.4,4.9c-2,15.4,0,35.8,11.6,61.3v0.1c0.1,0.2,0.2,0.4,0.3,0.6c0,0,20.7,40.9,18.2,65.4
	c-0.7,14.2-3.3,28.1-7.7,41.6c1.8,0.6,3.7,1.2,5.5,1.7c13,3.5,26.6,4.1,39.8,1.9c13.3-2.2,25.9-7.2,37.1-14.8
	c11.2-7.5,20.6-17.3,27.7-28.8c7.1-11.5,11.6-24.3,13.4-37.7c1.7-13.4,0.6-27-3.3-39.8c-3.9-12.9-10.5-24.8-19.4-34.9
	c-8.9-10.1-19.8-18.2-32-23.8C117.1,30,103.8,27.1,90.4,27.1L90.4,27.1z M112.4,133.6c-0.4-0.5-0.9-0.9-1.4-1.1
	c-0.6-0.3-1.2-0.4-1.8-0.4c-0.6,0-1.2,0.1-1.8,0.4c-0.6,0.3-1,0.7-1.4,1.2c-0.9,1.1-1.4,2.8-1.4,5.2c0,2.5,0.5,4.4,1.4,5.4
	c0.4,0.5,0.9,0.9,1.4,1.1c0.6,0.3,1.2,0.4,1.8,0.4c0.6,0,1.3-0.1,1.8-0.4c0.6-0.3,1.1-0.7,1.4-1.2c0.9-1.1,1.4-2.9,1.4-5.3
	C113.8,136.4,113.3,134.6,112.4,133.6L112.4,133.6z M133.3,104.8c-1-0.1-1.7-0.1-2.3-0.1c-1.9-0.1-3.8,0.3-5.5,1.2
	c-0.6,0.3-1,0.7-1.3,1.3c-0.3,0.5-0.5,1.2-0.5,1.8c0,0.4,0.1,0.8,0.2,1.1c0.2,0.4,0.4,0.7,0.7,0.9c0.8,0.6,1.8,1,2.8,0.9
	c0.8,0,1.6-0.1,2.3-0.5c0.7-0.3,1.4-0.8,1.9-1.4c1.1-1.2,1.7-2.8,1.7-4.5C133.3,105.3,133.3,105,133.3,104.8L133.3,104.8z
	 M153.7,134.4c-0.3-0.7-0.8-1.4-1.4-1.8c-0.7-0.5-1.5-0.8-2.4-0.8c-0.6,0-1.2,0.1-1.8,0.3c-0.6,0.2-1.1,0.6-1.5,1
	c-0.8,0.8-1.3,1.9-1.4,3.1h8.9C154.1,135.7,153.9,135,153.7,134.4L153.7,134.4z M153.7,134.4c-0.3-0.7-0.8-1.4-1.4-1.8
	c-0.7-0.5-1.5-0.8-2.4-0.8c-0.6,0-1.2,0.1-1.8,0.3c-0.6,0.2-1.1,0.6-1.5,1c-0.8,0.8-1.3,1.9-1.4,3.1h8.9
	C154.1,135.7,153.9,135,153.7,134.4L153.7,134.4z M133.3,104.8c-1-0.1-1.7-0.1-2.3-0.1c-1.9-0.1-3.8,0.3-5.5,1.2
	c-0.6,0.3-1,0.7-1.3,1.3c-0.3,0.5-0.5,1.2-0.5,1.8c0,0.4,0.1,0.8,0.2,1.1c0.2,0.4,0.4,0.7,0.7,0.9c0.8,0.6,1.8,1,2.8,0.9
	c0.8,0,1.6-0.1,2.3-0.5c0.7-0.3,1.4-0.8,1.9-1.4c1.1-1.2,1.7-2.8,1.7-4.5C133.3,105.3,133.3,105,133.3,104.8L133.3,104.8z
	 M112.4,133.6c-0.4-0.5-0.9-0.9-1.4-1.1s-1.2-0.4-1.8-0.4c-0.6,0-1.2,0.1-1.8,0.4c-0.6,0.3-1,0.7-1.4,1.2c-0.9,1.1-1.4,2.8-1.4,5.2
	c0,2.5,0.5,4.4,1.4,5.4c0.4,0.5,0.9,0.9,1.4,1.1c0.6,0.3,1.2,0.4,1.8,0.4c0.6,0,1.3-0.1,1.8-0.4c0.6-0.3,1.1-0.7,1.4-1.2
	c0.9-1.1,1.4-2.9,1.4-5.3C113.8,136.4,113.3,134.6,112.4,133.6L112.4,133.6z M112.4,133.6c-0.4-0.5-0.9-0.9-1.4-1.1
	c-0.6-0.3-1.2-0.4-1.8-0.4c-0.6,0-1.2,0.1-1.8,0.4c-0.6,0.3-1,0.7-1.4,1.2c-0.9,1.1-1.4,2.8-1.4,5.2c0,2.5,0.5,4.4,1.4,5.4
	c0.4,0.5,0.9,0.9,1.4,1.1c0.6,0.3,1.2,0.4,1.8,0.4c0.6,0,1.3-0.1,1.8-0.4c0.6-0.3,1.1-0.7,1.4-1.2c0.9-1.1,1.4-2.9,1.4-5.3
	C113.8,136.4,113.3,134.6,112.4,133.6L112.4,133.6z M133.3,104.8c-1-0.1-1.7-0.1-2.3-0.1c-1.9-0.1-3.8,0.3-5.5,1.2
	c-0.6,0.3-1,0.7-1.3,1.3s-0.5,1.2-0.4,1.8c0,0.4,0.1,0.8,0.2,1.1c0.2,0.4,0.4,0.7,0.7,0.9c0.8,0.6,1.8,1,2.8,0.9
	c0.8,0,1.6-0.1,2.3-0.5c0.7-0.3,1.4-0.8,1.9-1.4c1.1-1.2,1.7-2.8,1.7-4.5C133.3,105.3,133.3,105,133.3,104.8L133.3,104.8z
	 M133.3,104.8c-1-0.1-1.7-0.1-2.3-0.1c-1.9-0.1-3.8,0.3-5.5,1.2c-0.6,0.3-1,0.7-1.3,1.3c-0.3,0.5-0.5,1.2-0.5,1.8
	c0,0.4,0.1,0.8,0.2,1.1c0.2,0.4,0.4,0.7,0.7,0.9c0.8,0.6,1.8,1,2.8,0.9c0.8,0,1.6-0.1,2.3-0.5c0.7-0.3,1.4-0.8,1.9-1.4
	c1.1-1.2,1.7-2.8,1.7-4.5C133.3,105.3,133.3,105,133.3,104.8L133.3,104.8z M112.4,133.6c-0.4-0.5-0.9-0.9-1.4-1.1
	c-0.6-0.3-1.2-0.4-1.8-0.4c-0.6,0-1.2,0.1-1.8,0.4c-0.6,0.3-1,0.7-1.4,1.2c-0.9,1.1-1.4,2.8-1.4,5.2c0,2.5,0.5,4.4,1.4,5.4
	c0.4,0.5,0.9,0.9,1.4,1.1c0.6,0.3,1.2,0.4,1.8,0.4c0.6,0,1.3-0.1,1.8-0.4s1.1-0.7,1.4-1.2c0.9-1.1,1.4-2.9,1.4-5.3
	C113.8,136.4,113.3,134.6,112.4,133.6L112.4,133.6z M133.3,104.8c-1-0.1-1.7-0.1-2.3-0.1c-1.9-0.1-3.8,0.3-5.5,1.2
	c-0.6,0.3-1,0.7-1.3,1.3c-0.3,0.5-0.5,1.2-0.5,1.8c0,0.4,0.1,0.8,0.2,1.1c0.2,0.4,0.4,0.7,0.7,0.9c0.8,0.6,1.8,1,2.8,0.9
	c0.8,0,1.6-0.1,2.3-0.5c0.7-0.3,1.4-0.8,1.9-1.4c1.1-1.2,1.7-2.8,1.7-4.5C133.3,105.3,133.3,105,133.3,104.8L133.3,104.8z
	 M133.3,104.8c-1-0.1-1.7-0.1-2.3-0.1c-1.9-0.1-3.8,0.3-5.5,1.2c-0.6,0.3-1,0.7-1.3,1.3c-0.3,0.5-0.5,1.2-0.4,1.8
	c0,0.4,0.1,0.8,0.2,1.1c0.2,0.4,0.4,0.7,0.7,0.9c0.8,0.6,1.8,1,2.8,0.9c0.8,0,1.6-0.1,2.3-0.5s1.4-0.8,1.9-1.4
	c1.1-1.2,1.7-2.8,1.7-4.5C133.3,105.3,133.3,105,133.3,104.8L133.3,104.8z M133.3,104.8c-1-0.1-1.7-0.1-2.3-0.1
	c-1.9-0.1-3.8,0.3-5.5,1.2c-0.6,0.3-1,0.7-1.3,1.3c-0.3,0.5-0.5,1.2-0.4,1.8c0,0.4,0.1,0.8,0.2,1.1c0.2,0.4,0.4,0.7,0.7,0.9
	c0.8,0.6,1.8,1,2.8,0.9c0.8,0,1.6-0.1,2.3-0.5s1.4-0.8,1.9-1.4c1.1-1.2,1.7-2.8,1.7-4.5C133.3,105.3,133.3,105,133.3,104.8
	L133.3,104.8z M133.3,104.8c-1-0.1-1.7-0.1-2.3-0.1c-1.9-0.1-3.8,0.3-5.5,1.2c-0.6,0.3-1,0.7-1.3,1.3c-0.3,0.5-0.5,1.2-0.4,1.8
	c0,0.4,0.1,0.8,0.2,1.1c0.2,0.4,0.4,0.7,0.7,0.9c0.8,0.6,1.8,1,2.8,0.9c0.8,0,1.6-0.1,2.3-0.5c0.7-0.3,1.4-0.8,1.9-1.4
	c1.1-1.2,1.7-2.8,1.7-4.5C133.3,105.3,133.3,105,133.3,104.8"/>
</svg>
