<svg width="126" height="163" viewBox="0 0 126 163" fill="none" xmlns="http://www.w3.org/2000/svg">
<path d="M16.5681 3.24331C16.5681 2.60184 16.3784 1.97479 16.0231 1.44143C15.6678 0.90807 15.1627 0.492369 14.5718 0.24689C13.9809 0.00141158 13.3306 -0.0628253 12.7033 0.0623186C12.076 0.187462 11.4998 0.496368 11.0475 0.949953C10.5952 1.40354 10.2873 1.98144 10.1625 2.61058C10.0377 3.23972 10.1017 3.89184 10.3465 4.48447C10.5913 5.07711 11.0058 5.58365 11.5376 5.94003C12.0694 6.29641 12.6946 6.48663 13.3342 6.48663C14.1919 6.48663 15.0145 6.14493 15.621 5.53669C16.2274 4.92845 16.5681 4.10349 16.5681 3.24331Z" fill="#1BA2D9"/>
<path d="M11.0633 18.1873C11.0633 17.4425 10.843 16.7144 10.4304 16.0951C10.0178 15.4758 9.43138 14.9931 8.74523 14.708C8.05909 14.423 7.30408 14.3484 6.57568 14.4938C5.84727 14.6391 5.17816 14.9977 4.65301 15.5244C4.12786 16.0511 3.7702 16.7221 3.62531 17.4526C3.48042 18.1831 3.55481 18.9403 3.83902 19.6285C4.12323 20.3166 4.60447 20.9048 5.22198 21.3186C5.8395 21.7324 6.5655 21.9533 7.30818 21.9533C8.30407 21.9533 9.25922 21.5565 9.96343 20.8503C10.6676 20.144 11.0633 19.1861 11.0633 18.1873Z" fill="#1BA2D9"/>
<path d="M8.66609 32.3841C8.66609 31.5397 8.41641 30.7142 7.94862 30.0121C7.48083 29.3099 6.81588 28.7627 6.03797 28.4395C5.26007 28.1164 4.4041 28.0318 3.57828 28.1965C2.75246 28.3613 1.99396 28.7679 1.39858 29.365C0.803194 29.9622 0.397678 30.723 0.233412 31.5512C0.0691468 32.3794 0.153462 33.2378 0.47568 34.018C0.797899 34.7982 1.34352 35.465 2.04362 35.9341C2.74371 36.4033 3.56682 36.6537 4.40882 36.6537C5.53791 36.6537 6.62077 36.2039 7.41916 35.4032C8.21754 34.6025 8.66609 33.5165 8.66609 32.3841Z" fill="#1BA2D9"/>
<path d="M9.72723 46.1841C9.72723 45.2194 9.44205 44.2764 8.90763 43.4742C8.37321 42.6721 7.61362 42.0469 6.72491 41.6777C5.8362 41.3085 4.85829 41.2119 3.91484 41.4001C2.97139 41.5883 2.10473 42.0529 1.42455 42.735C0.744356 43.4172 0.281114 44.2864 0.0934499 45.2325C-0.094214 46.1787 0.00212284 47.1595 0.370239 48.0508C0.738355 48.9421 1.36176 49.7039 2.16158 50.2398C2.9614 50.7758 3.9017 51.0619 4.86363 51.0619C6.15354 51.0619 7.39061 50.548 8.30272 49.6333C9.21482 48.7185 9.72723 47.4778 9.72723 46.1841Z" fill="#1BA2D9"/>
<path d="M13.4793 60.7195C13.4793 59.7548 13.1941 58.8118 12.6597 58.0096C12.1253 57.2075 11.3657 56.5823 10.477 56.2131C9.58827 55.8439 8.61037 55.7473 7.66692 55.9355C6.72347 56.1237 5.85681 56.5883 5.17662 57.2705C4.49643 57.9526 4.03319 58.8218 3.84553 59.7679C3.65786 60.7141 3.7542 61.6949 4.12231 62.5862C4.49043 63.4775 5.11384 64.2393 5.91366 64.7752C6.71347 65.3112 7.65377 65.5973 8.61571 65.5973C9.90562 65.5973 11.1427 65.0834 12.0548 64.1687C12.9669 63.2539 13.4793 62.0132 13.4793 60.7195Z" fill="#1BA2D9"/>
<path d="M19.5244 74.5165C19.5244 73.4127 19.198 72.3336 18.5865 71.4159C17.9751 70.4981 17.106 69.7828 16.0891 69.3604C15.0723 68.938 13.9534 68.8274 12.874 69.0428C11.7945 69.2581 10.8029 69.7897 10.0247 70.5702C9.24644 71.3507 8.71649 72.3451 8.50177 73.4277C8.28705 74.5103 8.39723 75.6324 8.81842 76.6522C9.2396 77.672 9.95283 78.5436 10.868 79.1569C11.7831 79.7701 12.859 80.0975 13.9596 80.0975C15.4354 80.0973 16.8507 79.5092 17.8943 78.4626C18.9378 77.416 19.5242 75.9966 19.5244 74.5165Z" fill="#1BA2D9"/>
<path d="M9.94806 159.328C9.87615 159.965 9.99428 160.61 10.2876 161.18C10.5809 161.75 11.0362 162.22 11.5958 162.53C12.1554 162.841 12.7943 162.978 13.4316 162.924C14.069 162.871 14.6763 162.629 15.1765 162.229C15.6768 161.83 16.0476 161.29 16.2421 160.679C16.4367 160.068 16.4462 159.413 16.2695 158.796C16.0927 158.18 15.7376 157.63 15.2491 157.216C14.7607 156.802 14.1608 156.542 13.5252 156.47C13.1032 156.422 12.676 156.458 12.2678 156.576C11.8596 156.693 11.4786 156.89 11.1464 157.156C10.8142 157.421 10.5374 157.75 10.3318 158.122C10.1262 158.495 9.99581 158.905 9.94806 159.328Z" fill="#1BA2D9"/>
<path d="M17.0937 145.1C17.0102 145.841 17.1474 146.589 17.4879 147.251C17.8285 147.913 18.3571 148.458 19.0068 148.819C19.6566 149.179 20.3984 149.339 21.1384 149.277C21.8784 149.214 22.5835 148.934 23.1644 148.47C23.7453 148.006 24.1759 147.379 24.4019 146.67C24.6278 145.96 24.639 145.199 24.4339 144.484C24.2288 143.768 23.8167 143.129 23.2496 142.648C22.6825 142.167 21.986 141.866 21.2481 141.782C20.758 141.726 20.2618 141.768 19.7878 141.904C19.3138 142.041 18.8713 142.27 18.4855 142.578C18.0997 142.886 17.7782 143.268 17.5393 143.7C17.3005 144.133 17.1491 144.609 17.0937 145.1Z" fill="#1BA2D9"/>
<path d="M21.0682 131.265C20.9735 132.104 21.129 132.952 21.5151 133.702C21.9011 134.453 22.5005 135.072 23.2372 135.48C23.9739 135.889 24.8149 136.07 25.654 135.999C26.493 135.929 27.2924 135.61 27.9509 135.084C28.6095 134.558 29.0977 133.848 29.3538 133.043C29.61 132.239 29.6225 131.376 29.3898 130.565C29.1571 129.753 28.6897 129.029 28.0467 128.484C27.4037 127.939 26.6139 127.597 25.7773 127.502C25.2218 127.439 24.6593 127.486 24.122 127.641C23.5847 127.796 23.0831 128.056 22.6458 128.405C22.2085 128.755 21.8441 129.187 21.5734 129.678C21.3027 130.168 21.131 130.707 21.0682 131.265Z" fill="#1BA2D9"/>
<path d="M21.5623 117.435C21.4541 118.394 21.6318 119.363 22.0728 120.221C22.5139 121.078 23.1985 121.785 24.0402 122.252C24.8818 122.719 25.8427 122.925 26.8013 122.845C27.7599 122.764 28.6731 122.4 29.4255 121.799C30.1779 121.198 30.7356 120.387 31.0282 119.468C31.3208 118.549 31.3351 117.563 31.0692 116.636C30.8034 115.709 30.2694 114.882 29.5347 114.259C28.8001 113.636 27.8978 113.246 26.9419 113.137C25.6603 112.992 24.3734 113.363 23.3645 114.169C22.3556 114.975 21.7074 116.15 21.5623 117.435Z" fill="#1BA2D9"/>
<path d="M19.4647 102.566C19.3565 103.525 19.5342 104.494 19.9752 105.351C20.4163 106.209 21.1009 106.916 21.9426 107.383C22.7842 107.85 23.7451 108.056 24.7037 107.976C25.6623 107.895 26.5755 107.531 27.3279 106.93C28.0803 106.329 28.638 105.517 28.9306 104.598C29.2232 103.679 29.2375 102.694 28.9716 101.767C28.7058 100.84 28.1718 100.012 27.4371 99.3896C26.7025 98.7668 25.8002 98.3765 24.8443 98.268C23.5627 98.1225 22.2758 98.4937 21.2669 99.2997C20.258 100.106 19.6098 101.281 19.4647 102.566Z" fill="#1BA2D9"/>
<path d="M15.0056 88.1739C14.8818 89.2707 15.0851 90.3797 15.5898 91.3606C16.0944 92.3415 16.8779 93.1503 17.8409 93.6847C18.8039 94.2191 19.9033 94.4552 21.0001 94.3629C22.0969 94.2707 23.1417 93.8543 24.0025 93.1665C24.8633 92.4787 25.5015 91.5504 25.8362 90.4988C26.1709 89.4473 26.1873 88.3199 25.8831 87.259C25.5789 86.1982 24.9678 85.2517 24.1272 84.5391C23.2867 83.8266 22.2543 83.38 21.1607 83.2559C20.4345 83.1734 19.6993 83.2352 18.997 83.4377C18.2947 83.6402 17.639 83.9795 17.0674 84.4362C16.4958 84.8929 16.0195 85.458 15.6657 86.0994C15.312 86.7407 15.0877 87.4456 15.0056 88.1739Z" fill="#1BA2D9"/>
<path d="M88.013 65.239C87.3163 65.179 86.7587 65.1593 86.3601 65.1593C84.9822 65.0807 83.6082 65.3703 82.3783 65.9985C81.9827 66.2034 81.6531 66.5166 81.4276 66.9018C81.2021 67.2869 81.09 67.7282 81.1043 68.1745C81.0986 68.454 81.1544 68.7313 81.2678 68.9867C81.3812 69.242 81.5493 69.4691 81.7603 69.6518C82.3238 70.1166 83.0443 70.3455 83.7719 70.2907C84.349 70.3104 84.923 70.1984 85.4507 69.9631C85.9783 69.7279 86.4457 69.3755 86.8177 68.9325C87.6207 68.0502 88.0554 66.8924 88.032 65.698C88.0349 65.5447 88.0283 65.3914 88.0123 65.239H88.013ZM88.0123 65.239C87.3156 65.179 86.758 65.1593 86.3593 65.1593C84.9815 65.0807 83.6074 65.3703 82.3776 65.9985C81.982 66.2034 81.6524 66.5166 81.4269 66.9018C81.2014 67.2869 81.0893 67.7282 81.1036 68.1745C81.0978 68.454 81.1537 68.7313 81.2671 68.9867C81.3805 69.242 81.5486 69.4691 81.7595 69.6518C82.323 70.1166 83.0436 70.3455 83.7712 70.2907C84.3483 70.3104 84.9223 70.1984 85.45 69.9631C85.9776 69.7279 86.445 69.3755 86.817 68.9325C87.62 68.0502 88.0547 66.8924 88.0313 65.698C88.0342 65.5447 88.0276 65.3914 88.0116 65.239H88.0123ZM88.0116 65.239C87.3148 65.179 86.7572 65.1593 86.3585 65.1593C84.9807 65.0807 83.6067 65.3703 82.3769 65.9985C81.9813 66.2034 81.6516 66.5166 81.4261 66.9018C81.2006 67.2869 81.0886 67.7282 81.1028 68.1745C81.0971 68.454 81.153 68.7313 81.2664 68.9867C81.3798 69.242 81.5479 69.4691 81.7588 69.6518C82.3223 70.1166 83.0429 70.3455 83.7705 70.2907C84.3476 70.3104 84.9215 70.1984 85.4492 69.9631C85.9768 69.7279 86.4443 69.3755 86.8163 68.9325C87.6193 68.0502 88.054 66.8924 88.0306 65.698C88.0335 65.5447 88.0269 65.3914 88.0109 65.239H88.0116ZM88.0109 65.239C87.3141 65.179 86.7565 65.1593 86.3578 65.1593C84.9799 65.0807 83.6059 65.3703 82.3761 65.9985C81.9805 66.2034 81.6508 66.5166 81.4254 66.9018C81.1999 67.2869 81.0878 67.7282 81.1021 68.1745C81.0964 68.454 81.1522 68.7313 81.2656 68.9867C81.379 69.242 81.5472 69.4691 81.7581 69.6518C82.3216 70.1166 83.0421 70.3455 83.7697 70.2907C84.3468 70.3104 84.9208 70.1984 85.4485 69.9631C85.9761 69.7279 86.4436 69.3755 86.8156 68.9325C87.6186 68.0502 88.0533 66.8924 88.0299 65.698C88.0328 65.5447 88.0261 65.3914 88.0101 65.239H88.0109ZM72.9784 85.8845C72.6959 85.5444 72.343 85.2701 71.9441 85.0807C71.5452 84.8914 71.1099 84.7915 70.6686 84.788C70.2266 84.783 69.7896 84.8814 69.3922 85.0754C68.9948 85.2694 68.648 85.5537 68.3793 85.9057C67.7423 86.6644 67.4034 87.9224 67.4034 89.6599C67.4034 91.4771 67.7423 92.7943 68.3793 93.5531C68.6562 93.8995 69.0081 94.1782 69.4082 94.3682C69.8084 94.5581 70.2464 94.6543 70.6891 94.6495C71.1412 94.6542 71.5881 94.5517 71.9934 94.3505C72.3986 94.1494 72.7508 93.8551 73.0213 93.4917C73.6584 92.6927 73.9973 91.415 73.9973 89.6577C73.9973 87.9202 73.6591 86.6425 72.982 85.8837L72.9784 85.8845ZM88.0138 65.2383C87.317 65.1783 86.7594 65.1586 86.3608 65.1586C84.9829 65.08 83.6089 65.3696 82.379 65.9977C81.9834 66.2027 81.6538 66.5159 81.4283 66.901C81.2028 67.2861 81.0907 67.7275 81.105 68.1738C81.0993 68.4533 81.1551 68.7306 81.2685 68.9859C81.3819 69.2413 81.55 69.4684 81.761 69.6511C82.3245 70.1159 83.045 70.3448 83.7726 70.29C84.3497 70.3097 84.9238 70.1977 85.4514 69.9624C85.979 69.7272 86.4465 69.3748 86.8185 68.9318C87.6215 68.0495 88.0561 66.8917 88.0327 65.6973C88.0356 65.544 88.029 65.3907 88.013 65.2383H88.0138ZM88.013 65.2383C87.3163 65.1783 86.7587 65.1586 86.3601 65.1586C84.9822 65.08 83.6082 65.3696 82.3783 65.9977C81.9827 66.2027 81.6531 66.5159 81.4276 66.901C81.2021 67.2861 81.09 67.7275 81.1043 68.1738C81.0986 68.4533 81.1544 68.7306 81.2678 68.9859C81.3812 69.2413 81.5493 69.4684 81.7603 69.6511C82.3238 70.1159 83.0443 70.3448 83.7719 70.29C84.349 70.3097 84.923 70.1977 85.4507 69.9624C85.9783 69.7272 86.4457 69.3748 86.8177 68.9318C87.6207 68.0495 88.0554 66.8917 88.032 65.6973C88.0349 65.544 88.0283 65.3907 88.0123 65.2383H88.013ZM72.9805 85.8837C72.6981 85.5436 72.3451 85.2694 71.9462 85.08C71.5473 84.8907 71.1121 84.7908 70.6708 84.7873C70.2289 84.7822 69.7918 84.8807 69.3943 85.0747C68.9969 85.2687 68.6502 85.553 68.3815 85.905C67.7445 86.6637 67.4056 87.9217 67.4056 89.6592C67.4056 91.4764 67.7445 92.7936 68.3815 93.5523C68.6584 93.8988 69.0102 94.1775 69.4104 94.3675C69.8105 94.5574 70.2485 94.6536 70.6912 94.6488C71.1434 94.6534 71.5902 94.551 71.9955 94.3498C72.4008 94.1486 72.753 93.8544 73.0236 93.491C73.6606 92.692 73.9995 91.4143 73.9995 89.657C73.9995 87.9195 73.6613 86.6418 72.9841 85.883L72.9805 85.8837ZM70.6745 84.7866C70.2325 84.7815 69.7954 84.8799 69.398 85.0739C69.0006 85.2679 68.6538 85.5522 68.3851 85.9042C67.7481 86.6629 67.4092 87.9209 67.4092 89.6584C67.4092 91.4756 67.7481 92.7929 68.3851 93.5516C68.6621 93.898 69.0139 94.1767 69.414 94.3667C69.8142 94.5566 70.2521 94.6529 70.6948 94.6481C71.147 94.6527 71.5939 94.5503 71.9992 94.3491C72.4044 94.1479 72.7567 93.8536 73.0272 93.4902C73.6642 92.6912 74.0031 91.4135 74.0031 89.6563C74.0031 87.9187 73.6649 86.641 72.9878 85.8823C72.7054 85.5422 72.3524 85.2679 71.9535 85.0786C71.5546 84.8892 71.1194 84.7893 70.6781 84.7858L70.6745 84.7866ZM86.3593 65.16C84.9815 65.0815 83.6074 65.371 82.3776 65.9992C81.982 66.2041 81.6524 66.5174 81.4269 66.9025C81.2014 67.2876 81.0893 67.7289 81.1036 68.1753C81.0978 68.4548 81.1537 68.732 81.2671 68.9874C81.3805 69.2427 81.5486 69.4699 81.7595 69.6526C82.323 70.1174 83.0436 70.3462 83.7712 70.2914C84.3483 70.3111 84.9223 70.1992 85.45 69.9639C85.9776 69.7286 86.445 69.3762 86.817 68.9333C87.62 68.051 88.0547 66.8932 88.0313 65.6988C88.0342 65.5455 88.0276 65.3922 88.0116 65.2397C87.3148 65.1797 86.7572 65.16 86.3585 65.16H86.3593ZM101.669 85.1886C101.175 84.8214 100.572 84.6314 99.9568 84.6491C99.5249 84.6401 99.0958 84.7225 98.6978 84.891C98.2998 85.0596 97.9418 85.3104 97.647 85.6272C97.0742 86.2357 96.7114 87.0126 96.612 87.8435H103.003C102.956 87.3791 102.849 86.9229 102.685 86.4861C102.479 85.964 102.126 85.5131 101.67 85.1879L101.669 85.1886ZM118.652 96.11C117.369 97.0005 115.83 97.4426 114.272 97.368C110.847 97.368 108.677 95.9302 107.858 93.1152L107.719 92.616L110.685 91.9968L110.805 92.4354C111.183 93.9332 112.418 94.6517 114.568 94.6517C115.255 94.674 115.933 94.4936 116.519 94.1327C116.74 94.0086 116.923 93.8252 117.046 93.603C117.169 93.3808 117.228 93.1286 117.216 92.8747C117.216 92.3557 117.017 91.6372 115.285 91.3178L112.438 90.7783C111.357 90.6097 110.348 90.1312 109.532 89.4004C109.154 89.0344 108.858 88.5926 108.663 88.1041C108.467 87.6155 108.377 87.0911 108.397 86.565C108.39 85.9463 108.522 85.3341 108.784 84.774C109.046 84.2139 109.431 83.7204 109.91 83.3305C111.038 82.4496 112.444 82.0033 113.872 82.0725C117.038 82.0725 119.009 83.3502 119.765 85.8662L119.925 86.3654L117.078 86.9846L116.939 86.6052C116.461 85.3874 115.486 84.7887 113.973 84.7887C113.324 84.7587 112.681 84.9181 112.121 85.2478C111.93 85.3496 111.771 85.5025 111.662 85.6894C111.553 85.8763 111.498 86.0898 111.503 86.3062C111.503 86.7857 111.682 87.4444 113.215 87.7441L115.863 88.2038C118.87 88.763 120.402 90.26 120.402 92.7168C120.412 93.3832 120.257 94.0415 119.952 94.6334C119.646 95.2254 119.201 95.7328 118.653 96.1107L118.652 96.11ZM106.827 56.7159H109.475L109.594 52.7021H112.779V56.7159H116.124V59.6105H112.779L112.779 68.4764C112.779 69.7147 113.337 70.2534 114.651 70.2534C115.225 70.2434 115.797 70.1899 116.363 70.0933L116.98 69.9939V72.9083L116.522 72.9682C115.791 73.08 115.052 73.1401 114.312 73.1481C111.146 73.1481 109.474 71.3937 109.474 68.0766L109.474 59.6047H106.826L106.827 56.7159ZM106.289 90.3807H96.4736C96.5333 92.018 96.8919 93.1357 97.5668 93.6949C98.2308 94.2912 99.0848 94.6309 99.9757 94.6532C101.506 94.6532 102.544 93.874 103.183 92.2768L103.322 91.8974L106.209 92.4968L106.049 93.0158C105.646 94.2714 104.85 95.3634 103.78 96.1305C102.633 96.9591 101.251 97.3933 99.8379 97.368C98.9208 97.3969 98.0087 97.2202 97.1683 96.8507C96.3279 96.4812 95.5804 95.9282 94.9802 95.2321C93.7174 93.7132 93.0643 91.7768 93.1485 89.801C93.0597 87.7682 93.7427 85.7773 95.0596 84.2295C95.6583 83.5354 96.4023 82.9822 97.2385 82.6095C98.0748 82.2368 98.9828 82.0537 99.8977 82.0732C100.768 82.0456 101.634 82.2122 102.433 82.5609C103.232 82.9097 103.943 83.4319 104.516 84.0899C105.672 85.3874 106.266 87.3442 106.288 89.9004L106.289 90.3807ZM88.3505 72.7299L88.2711 72.2914C88.1902 71.9031 88.1368 71.5096 88.1115 71.1138C87.5134 71.7954 86.7694 72.3326 85.9351 72.6853C85.1009 73.0379 84.1979 73.1969 83.2938 73.1503C82.526 73.1981 81.7565 73.0901 81.0312 72.8327C80.306 72.5754 79.6399 72.174 79.073 71.6525C78.5929 71.1913 78.2127 70.636 77.9558 70.0211C77.699 69.4061 77.5712 68.7447 77.5803 68.0781C77.5736 67.2645 77.7639 66.4615 78.135 65.738C78.5061 65.0146 79.0469 64.3923 79.7107 63.9247C81.0846 62.8663 83.3149 62.3677 86.54 62.3677C86.8782 62.3677 87.336 62.3677 87.9737 62.4079C87.9855 61.7871 87.9049 61.168 87.7347 60.571C87.6587 60.3558 87.5402 60.1582 87.3862 59.99C87.2323 59.8219 87.0462 59.6866 86.8389 59.5923C86.1929 59.2859 85.4821 59.1421 84.7682 59.1734C81.9803 59.1734 81.3834 60.4708 81.1844 61.4496L81.0657 61.9489L77.8995 61.4094L77.9986 60.8707C78.5759 57.8554 80.9651 56.3182 85.1065 56.3182C87.2966 56.3182 88.8892 56.8372 89.844 57.8533C90.8192 58.8715 91.2972 60.5286 91.2972 62.9452L91.2972 69.2944C91.2908 70.2276 91.3842 71.1588 91.5757 72.0721L91.7353 72.7299H88.3505ZM86.7179 97.3695H83.8703L78.6743 82.8137H82.0394L85.465 92.8374L88.8301 82.8137H91.7367L86.7179 97.3695ZM75.3894 95.1934C74.7916 95.8953 74.0453 96.4548 73.2049 96.8312C72.3645 97.2076 71.451 97.3915 70.5309 97.3695C69.6159 97.4071 68.7056 97.2193 67.8797 96.8225C67.0538 96.4257 66.3375 95.8319 65.7933 95.0932C64.6582 93.5162 64.0768 91.6061 64.1403 89.6621C64.0513 87.6565 64.7292 85.6925 66.0353 84.1711C66.6246 83.5011 67.3514 82.9668 68.1658 82.6049C68.9803 82.243 69.8632 82.0621 70.7539 82.0746C71.6687 82.0364 72.5794 82.2176 73.4104 82.603C74.2414 82.9885 74.9688 83.5671 75.5322 84.291C76.7181 85.831 77.3309 87.7379 77.2647 89.6826C77.3381 91.6879 76.6717 93.6499 75.393 95.1934H75.3894ZM62.7307 97.3695H59.5449L59.5449 83.5542L54.408 97.3695H52.1981L47.0014 83.5074V97.3643H44.1144L44.1144 78.0573H48.3155L53.4903 91.8148L58.5667 78.0573H62.7277L62.7307 97.3695ZM33.1656 67.0394L32.9666 66.4604L36.2916 65.7214L36.4512 66.1805C37.2872 68.6965 39.0795 69.934 41.8863 69.934C43.0455 70.0221 44.1994 69.7046 45.1515 69.0356C45.4874 68.7542 45.7539 68.3987 45.93 67.9968C46.1061 67.5949 46.1872 67.1577 46.1669 66.7192C46.1791 66.4014 46.1192 66.0849 45.9917 65.7936C45.8642 65.5024 45.6724 65.244 45.4307 65.0379C44.8757 64.5753 44.2217 64.2474 43.5196 64.0797L39.4942 63.0819C38.551 62.8631 37.6406 62.5208 36.7866 62.0636C36.0016 61.5883 35.3559 60.9132 34.9149 60.1068C34.3918 59.2042 34.1234 58.1757 34.1386 57.1318C34.113 56.2746 34.2913 55.4237 34.6589 54.6494C35.0265 53.8752 35.5727 53.1999 36.2523 52.6795C37.7539 51.5552 39.5957 50.984 41.4679 51.0618C45.3505 51.0618 47.9387 52.8585 49.1734 56.3935L49.3526 56.933L45.9876 57.9315L45.868 57.3723C45.7737 56.8875 45.5798 56.4277 45.2988 56.0221C45.0177 55.6165 44.6556 55.274 44.2354 55.0164C43.3732 54.4835 42.3809 54.2001 41.3681 54.1977C40.4273 54.1825 39.5039 54.454 38.7202 54.9762C38.3842 55.1956 38.1105 55.4985 37.9256 55.8553C37.7406 56.2121 37.6508 56.6108 37.6648 57.0127C37.6648 57.4717 37.6648 58.8496 40.5321 59.5286L44.2952 60.427C47.9985 61.3042 49.8701 63.3618 49.8701 66.5167C49.8848 67.4154 49.7033 68.3064 49.3381 69.1272C48.973 69.948 48.4332 70.6787 47.7565 71.268C46.3629 72.5055 44.4118 73.1451 41.9257 73.1451C37.5256 73.1451 34.5789 71.0889 33.1656 67.035V67.0394ZM53.2141 56.7122H56.2578V58.3094C56.7334 57.6827 57.3482 57.1759 58.0533 56.8293C58.7584 56.4826 59.5344 56.3056 60.3197 56.3124C61.4621 56.2869 62.5693 56.7097 63.4056 57.4907C63.8881 57.9417 64.2858 58.476 64.5798 59.0681C65.0211 58.2261 65.6863 57.5231 66.5015 57.0368C67.3167 56.5505 68.2501 56.3001 69.1985 56.3131C70.2764 56.2905 71.33 56.6356 72.1868 57.2919C72.9649 57.8511 73.5497 58.64 73.8595 59.5484C74.14 60.6436 74.2672 61.7725 74.2378 62.9028V72.727H70.9077V62.9028C70.9296 62.2258 70.8694 61.5485 70.7284 60.886C70.5833 60.4674 70.3117 60.1046 69.9514 59.8481C69.5485 59.5314 69.05 59.3623 68.5382 59.3686C68.1238 59.3887 67.7179 59.4929 67.3448 59.6748C66.9718 59.8568 66.6393 60.1126 66.3676 60.427C65.9763 60.8871 65.6798 61.4205 65.4953 61.9963C65.3107 62.5721 65.2418 63.1788 65.2926 63.7814V72.727H61.9872V62.3633C62.0351 61.9331 61.9925 61.4976 61.8622 61.0848C61.7319 60.6721 61.5168 60.2914 61.2307 59.9672C60.7897 59.5451 60.2076 59.303 59.5981 59.2882C59.18 59.2938 58.7687 59.3956 58.3959 59.5857C58.0232 59.7757 57.6989 60.0491 57.448 60.3846C56.7752 61.1868 56.4269 62.213 56.472 63.2603V72.7248H53.2068L53.2141 56.7122ZM95.083 56.7122H98.1886V58.5689C98.5336 57.9945 98.9866 57.4928 99.5223 57.0916C100.259 56.575 101.132 56.2902 102.031 56.2736C102.29 56.2736 102.608 56.2934 103.007 56.3336L103.485 56.3935V59.628H102.467C101.94 59.6154 101.417 59.7199 100.935 59.934C100.453 60.148 100.024 60.4665 99.6798 60.8663C98.8852 61.8403 98.4556 63.0625 98.4655 64.3209L98.4655 72.727H95.0807L95.083 56.7122ZM57.2155 9.42949C46.2777 9.41632 35.5015 12.0757 25.8188 17.1777C23.7401 18.2525 21.7207 19.4389 19.7693 20.7317C18.3357 31.7737 19.7693 46.4692 28.0913 64.7792V64.8194C28.1708 64.9393 28.2109 65.0986 28.2904 65.2185C28.2904 65.2185 43.1224 94.6298 41.3703 112.161C40.8517 122.325 38.9955 132.376 35.85 142.052C37.1619 142.491 38.4757 142.89 39.7915 143.25C49.1217 145.739 58.8739 146.202 68.3966 144.608C77.9194 143.015 86.9935 139.402 95.0128 134.011C103.032 128.619 109.812 121.574 114.9 113.345C119.987 105.116 123.266 95.8932 124.515 86.2922C125.765 76.6912 124.958 66.9334 122.147 57.6703C119.336 48.4073 114.587 39.8524 108.216 32.5771C101.846 25.3019 94.0008 19.4736 85.205 15.4819C76.4093 11.4901 66.8655 9.42676 57.2111 9.42949H57.2155ZM72.9798 85.8837C72.6973 85.5436 72.3444 85.2694 71.9455 85.08C71.5466 84.8907 71.1114 84.7908 70.6701 84.7873C70.2281 84.7822 69.791 84.8807 69.3936 85.0747C68.9962 85.2687 68.6495 85.553 68.3808 85.905C67.7438 86.6637 67.4048 87.9217 67.4048 89.6592C67.4048 91.4764 67.7438 92.7936 68.3808 93.5523C68.6577 93.8988 69.0095 94.1775 69.4096 94.3675C69.8098 94.5574 70.2478 94.6536 70.6905 94.6488C71.1427 94.6534 71.5895 94.551 71.9948 94.3498C72.4001 94.1486 72.7522 93.8544 73.0228 93.491C73.6598 92.692 73.9987 91.4143 73.9987 89.657C73.9987 87.9195 73.6605 86.6418 72.9834 85.883L72.9798 85.8837ZM88.0153 65.2375C87.3185 65.1776 86.7609 65.1578 86.3622 65.1578C84.9843 65.0793 83.6103 65.3688 82.3805 65.997C81.9848 66.202 81.6552 66.5152 81.4297 66.9003C81.2042 67.2854 81.0922 67.7267 81.1065 68.1731C81.1008 68.4525 81.1565 68.7298 81.2699 68.9852C81.3833 69.2405 81.5515 69.4677 81.7625 69.6504C82.326 70.1152 83.0466 70.344 83.7741 70.2892C84.3512 70.309 84.9252 70.1969 85.4528 69.9617C85.9805 69.7264 86.4479 69.374 86.8199 68.9311C87.623 68.0488 88.0576 66.8909 88.0342 65.6965C88.0371 65.5433 88.0306 65.39 88.0146 65.2375H88.0153ZM102.688 86.4824C102.482 85.9604 102.129 85.5094 101.673 85.1842C101.178 84.817 100.575 84.6271 99.9604 84.6448C99.5285 84.6357 99.0995 84.7181 98.7015 84.8866C98.3035 85.0552 97.9454 85.306 97.6507 85.6228C97.0779 86.2313 96.715 87.0082 96.6157 87.8391H103.007C102.96 87.3747 102.853 86.9184 102.688 86.4817L102.688 86.4824ZM102.688 86.4817C102.482 85.9596 102.13 85.5087 101.673 85.1835C101.179 84.8163 100.576 84.6263 99.9611 84.644C99.5292 84.6349 99.1002 84.7174 98.7022 84.8859C98.3042 85.0544 97.9461 85.3053 97.6514 85.6221C97.0786 86.2306 96.7158 87.0075 96.6165 87.8383H103.008C102.96 87.374 102.853 86.9177 102.689 86.4809L102.688 86.4817ZM88.016 65.2361C87.3192 65.1761 86.7617 65.1564 86.363 65.1564C84.9851 65.0778 83.6111 65.3674 82.3813 65.9956C81.9856 66.2005 81.656 66.5137 81.4305 66.8988C81.205 67.2839 81.0929 67.7253 81.1072 68.1716C81.1015 68.4511 81.1573 68.7284 81.2707 68.9837C81.3841 69.2391 81.5523 69.4662 81.7632 69.6489C82.3267 70.1137 83.0473 70.3425 83.7748 70.2878C84.3519 70.3075 84.9259 70.1955 85.4535 69.9602C85.9812 69.725 86.4487 69.3726 86.8207 68.9296C87.6237 68.0473 88.0583 66.8895 88.0349 65.6951C88.0378 65.5418 88.0313 65.3885 88.0153 65.2361H88.016ZM72.9834 85.8815C72.701 85.5415 72.348 85.2672 71.9492 85.0778C71.5503 84.8885 71.1151 84.7886 70.6737 84.7851C70.2318 84.78 69.7947 84.8785 69.3973 85.0725C68.9999 85.2665 68.653 85.5508 68.3843 85.9027C67.7473 86.6615 67.4084 87.9195 67.4084 89.657C67.4084 91.4742 67.7473 92.7914 68.3843 93.5502C68.6613 93.8966 69.0131 94.1753 69.4133 94.3653C69.8134 94.5552 70.2514 94.6514 70.6941 94.6466C71.1463 94.6513 71.5932 94.5488 71.9984 94.3476C72.4037 94.1464 72.7559 93.8522 73.0264 93.4888C73.6634 92.6898 74.0023 91.412 74.0023 89.6548C74.0023 87.9173 73.6642 86.6396 72.9871 85.8808L72.9834 85.8815ZM72.9871 85.8808C72.7046 85.5407 72.3517 85.2664 71.9528 85.0771C71.5539 84.8877 71.1187 84.7879 70.6774 84.7844C70.2354 84.7793 69.7983 84.8777 69.4009 85.0717C69.0035 85.2657 68.6567 85.55 68.388 85.902C67.751 86.6608 67.4121 87.9187 67.4121 89.6563C67.4121 91.4734 67.751 92.7906 68.388 93.5494C68.6649 93.8958 69.0168 94.1746 69.4169 94.3645C69.8171 94.5545 70.2551 94.6507 70.6978 94.6459C71.1499 94.6505 71.5968 94.5481 72.0021 94.3469C72.4074 94.1457 72.7595 93.8514 73.0301 93.488C73.6671 92.6891 74.006 91.4113 74.006 89.6541C74.006 87.9166 73.6678 86.6388 72.9907 85.8801L72.9871 85.8808ZM88.0226 65.2346C87.3258 65.1747 86.7682 65.1549 86.3695 65.1549C84.9916 65.0764 83.6176 65.3659 82.3878 65.9941C81.9921 66.1991 81.6625 66.5122 81.437 66.8974C81.2115 67.2825 81.0995 67.7238 81.1138 68.1702C81.1081 68.4496 81.1638 68.7269 81.2772 68.9823C81.3906 69.2376 81.5588 69.4647 81.7698 69.6475C82.3333 70.1122 83.0538 70.3411 83.7813 70.2863C84.3584 70.3061 84.9325 70.194 85.4601 69.9588C85.9877 69.7235 86.4552 69.3711 86.8272 68.9282C87.6302 68.0458 88.0649 66.888 88.0415 65.6936C88.0444 65.5404 88.0379 65.3871 88.0219 65.2346H88.0226ZM88.0219 65.2346C87.3251 65.1747 86.7675 65.1549 86.3688 65.1549C84.9909 65.0764 83.6169 65.3659 82.3871 65.9941C81.9914 66.1991 81.6618 66.5122 81.4363 66.8974C81.2108 67.2825 81.0988 67.7238 81.1131 68.1702C81.1074 68.4496 81.1631 68.7269 81.2765 68.9823C81.3899 69.2376 81.558 69.4647 81.769 69.6475C82.3325 70.1122 83.0531 70.3411 83.7806 70.2863C84.3577 70.3061 84.9318 70.194 85.4594 69.9588C85.987 69.7235 86.4545 69.3711 86.8265 68.9282C87.6295 68.0458 88.0642 66.888 88.0408 65.6936C88.0437 65.5404 88.0371 65.3871 88.0211 65.2346H88.0219ZM72.9893 85.8801C72.7069 85.54 72.3539 85.2657 71.955 85.0764C71.5561 84.887 71.1208 84.7871 70.6795 84.7836C70.2376 84.7786 69.8006 84.877 69.4032 85.071C69.0057 85.265 68.6589 85.5493 68.3902 85.9013C67.7532 86.66 67.4143 87.918 67.4143 89.6555C67.4143 91.4727 67.7532 92.7899 68.3902 93.5487C68.6671 93.8951 69.019 94.1738 69.4192 94.3638C69.8193 94.5537 70.2572 94.6499 70.6999 94.6451C71.1521 94.6498 71.599 94.5473 72.0043 94.3461C72.4096 94.1449 72.7618 93.8507 73.0323 93.4873C73.6693 92.6883 74.0082 91.4106 74.0082 89.6534C74.0082 87.9158 73.6701 86.6381 72.993 85.8793L72.9893 85.8801ZM88.0247 65.2338C87.3279 65.1739 86.7704 65.1542 86.3717 65.1542C84.9938 65.0757 83.6198 65.3652 82.39 65.9933C81.9944 66.1983 81.6647 66.5115 81.4392 66.8966C81.2138 67.2818 81.1016 67.7231 81.1159 68.1695C81.1102 68.4489 81.1661 68.7262 81.2795 68.9815C81.3928 69.2369 81.561 69.464 81.7719 69.6467C82.3354 70.1115 83.056 70.3404 83.7835 70.2856C84.3606 70.3053 84.9347 70.1933 85.4623 69.9581C85.99 69.7228 86.4574 69.3704 86.8294 68.9275C87.6324 68.0451 88.0671 66.8873 88.0437 65.6929C88.0465 65.5397 88.04 65.3863 88.024 65.2338H88.0247ZM88.024 65.2338C87.3272 65.1739 86.7697 65.1542 86.371 65.1542C84.9931 65.0757 83.6191 65.3652 82.3893 65.9933C81.9936 66.1983 81.664 66.5115 81.4385 66.8966C81.2131 67.2818 81.1009 67.7231 81.1152 68.1695C81.1095 68.4489 81.1654 68.7262 81.2787 68.9815C81.3921 69.2369 81.5603 69.464 81.7712 69.6467C82.3347 70.1115 83.0553 70.3404 83.7828 70.2856C84.3599 70.3053 84.934 70.1933 85.4616 69.9581C85.9893 69.7228 86.4567 69.3704 86.8287 68.9275C87.6317 68.0451 88.0663 66.8873 88.0429 65.6929C88.0458 65.5397 88.0393 65.3863 88.0233 65.2338H88.024ZM88.0233 65.2338C87.3265 65.1739 86.7689 65.1542 86.3702 65.1542C84.9923 65.0757 83.6184 65.3652 82.3886 65.9933C81.9929 66.1983 81.6632 66.5115 81.4377 66.8966C81.2123 67.2818 81.1002 67.7231 81.1145 68.1695C81.1088 68.4489 81.1646 68.7262 81.278 68.9815C81.3914 69.2369 81.5595 69.464 81.7705 69.6467C82.334 70.1115 83.0546 70.3404 83.7821 70.2856C84.3592 70.3053 84.9332 70.1933 85.4608 69.9581C85.9885 69.7228 86.4559 69.3704 86.8279 68.9275C87.631 68.0451 88.0656 66.8873 88.0422 65.6929C88.0451 65.5397 88.0386 65.3863 88.0226 65.2338H88.0233ZM88.0226 65.2338C87.3258 65.1739 86.7682 65.1542 86.3695 65.1542C84.9916 65.0757 83.6176 65.3652 82.3878 65.9933C81.9921 66.1983 81.6625 66.5115 81.437 66.8966C81.2115 67.2818 81.0995 67.7231 81.1138 68.1695C81.1081 68.4489 81.1638 68.7262 81.2772 68.9815C81.3906 69.2369 81.5588 69.464 81.7698 69.6467C82.3333 70.1115 83.0538 70.3404 83.7813 70.2856C84.3584 70.3053 84.9325 70.1933 85.4601 69.9581C85.9877 69.7228 86.4552 69.3704 86.8272 68.9275C87.6302 68.0451 88.0649 66.8873 88.0415 65.6929C88.0444 65.5397 88.0379 65.3863 88.0219 65.2338" fill="#1BA2D9"/>
</svg>
