<svg width="41" height="40" viewBox="0 0 41 40" fill="none" xmlns="http://www.w3.org/2000/svg">
<path d="M16.3516 35.0679C16.599 35.1398 16.8512 35.2034 17.1035 35.2609C16.8512 35.2034 16.599 35.1374 16.3516 35.0679Z" fill="#1BA2D9"/>
<path d="M39.5684 13.6893C39.1252 12.3524 38.5394 11.067 37.8208 9.85505C35.7123 6.28593 32.5483 3.4553 28.7629 1.75151C27.477 1.173 26.1329 0.733191 24.7534 0.439488C24.6129 0.411929 24.4736 0.380637 24.3331 0.35787C24.237 0.339897 24.1396 0.318422 24.0411 0.304044L23.8382 0.269232L23.4778 0.214235L23.0477 0.155436L22.9277 0.138761C22.1702 0.0491479 21.4082 0.00315137 20.6455 0.000976562H20.5374C16.5642 0.00174017 12.6807 1.1799 9.37998 3.3862C6.07924 5.5925 3.50998 8.72733 1.99831 12.3928C0.486643 16.0583 0.100749 20.0891 0.889534 23.9737C1.67832 27.8584 3.60632 31.4219 6.42872 34.2116C6.95964 34.7327 7.51811 35.2251 8.10186 35.6866H8.10904C8.20994 35.768 8.30975 35.8447 8.41065 35.9261C8.65088 36.1083 8.89108 36.2855 9.13131 36.4545C12.4932 38.7707 16.4838 40.0076 20.5695 39.9997C24.6552 39.9918 28.6411 38.7395 31.9939 36.4103C32.9569 35.7392 33.8596 34.9857 34.6918 34.1586C37.3262 31.5332 39.1764 28.2286 40.0355 24.6141C40.8947 20.9995 40.7287 17.2178 39.5564 13.6919L39.5684 13.6893ZM16.3502 35.0681C16.5977 35.1388 16.8499 35.2037 17.1021 35.2624C16.8511 35.2025 16.5989 35.1425 16.3502 35.067V35.0681ZM20.6491 33.3188C18.0086 33.319 15.4273 32.5383 13.2317 31.075C11.036 29.6118 9.32458 27.5317 8.31388 25.0982C7.30317 22.6647 7.03857 19.9869 7.55348 17.4034C8.06839 14.8198 9.33966 12.4468 11.2066 10.584C13.0736 8.72128 15.4524 7.45259 18.0421 6.93847C20.6319 6.42434 23.3163 6.68774 25.7559 7.69555C28.1955 8.70336 30.2808 10.4102 31.748 12.6002C33.2152 14.7903 33.9985 17.3652 33.9987 19.9993C33.9987 23.5311 32.5923 26.9184 30.0891 29.416C27.5859 31.9136 24.1907 33.317 20.6503 33.3176L20.6491 33.3188Z" fill="#43B2DF"/>
<path d="M40.4813 19.9995C40.4841 22.6296 39.9656 25.2342 38.9555 27.6637C37.9454 30.0931 36.4637 32.2993 34.5956 34.1553C31.3793 37.3542 27.1699 39.3696 22.6561 39.8718C18.1423 40.3739 13.5912 39.3333 9.74744 36.9198C9.52592 36.8079 9.31767 36.6715 9.12648 36.5134L9.11929 36.505C8.77603 36.2208 8.49218 35.8721 8.28412 35.4785C8.07606 35.0848 7.94787 34.654 7.90671 34.2109C7.86555 33.7678 7.91223 33.321 8.04424 32.8959C8.17625 32.4709 8.39098 32.076 8.67605 31.7337L8.73367 31.6667L9.04965 31.3528C9.64604 30.831 10.4069 30.5339 11.1999 30.5135C11.9929 30.4932 12.7681 30.7508 13.3906 31.2414C15.1397 32.3485 17.123 33.0344 19.1838 33.2449C21.2445 33.4554 23.326 33.1848 25.2637 32.4542C27.2014 31.7237 28.9422 30.5532 30.3482 29.0356C31.7542 27.5181 32.7869 25.6951 33.3647 23.7106C33.9425 21.7262 34.0494 19.6347 33.677 17.6019C33.3047 15.5691 32.4632 13.6507 31.2193 11.9984C29.9754 10.346 28.3631 9.00506 26.51 8.0816C24.6569 7.15813 22.6137 6.67748 20.5422 6.67772V0C21.305 0.00276374 22.067 0.0487582 22.8245 0.137784C22.8649 0.139535 22.9051 0.145052 22.9445 0.154459L23.3746 0.213259L23.7348 0.270596L23.9379 0.305407C24.0364 0.319786 24.1336 0.34009 24.2297 0.358064C24.3702 0.383227 24.5095 0.412094 24.6501 0.440852C26.0297 0.733978 27.3739 1.17381 28.6595 1.75287C32.445 3.45659 35.609 6.28724 37.7174 9.85641C38.4359 11.0684 39.0219 12.3541 39.4652 13.691C40.1421 15.7256 40.4852 17.8558 40.4813 19.9995Z" fill="#1BA2D9"/>
</svg>
