<svg width="30" height="29" viewBox="0 0 30 29" fill="none" xmlns="http://www.w3.org/2000/svg">
<path d="M14.7802 21.2351C10.9964 21.2351 7.92277 18.203 7.92277 14.4567C7.92277 10.7104 10.9964 7.67831 14.7802 7.67831C18.5701 7.67831 21.6376 10.7104 21.6376 14.4567C21.6376 18.203 18.564 21.2351 14.7802 21.2351ZM28.4093 12.4595L26.3215 11.9511L25.8684 11.8422L25.7398 11.4004C25.5133 10.5894 25.1888 9.8026 24.7847 9.07635L24.5398 8.64059L24.8337 8.2351L25.8439 6.83101C26.1807 6.35894 26.1317 5.71741 25.7092 5.29982L24.2887 3.90177C24.0622 3.67785 23.7622 3.5568 23.4438 3.5568C23.2234 3.5568 23.0091 3.61732 22.8132 3.73232L21.2213 4.68855L20.8172 4.93064L20.407 4.70066C19.6232 4.25885 18.7722 3.91388 17.8966 3.67179L17.4068 3.53259L17.3211 3.03632L16.9721 1.0028C16.8742 0.427851 16.366 0.0102539 15.7843 0.0102539H13.7822C13.225 0.0102539 12.7413 0.379434 12.6066 0.918074L12.0556 3.16341L11.9454 3.59917L11.5107 3.73232C10.7208 3.9744 9.94939 4.30122 9.22079 4.71276L8.81056 4.94879L8.39422 4.6946L6.1227 3.32682C5.9329 3.21788 5.7186 3.15736 5.49818 3.15736C5.1798 3.15736 4.87367 3.27841 4.64101 3.50839L3.22666 4.90643C2.81644 5.31797 2.76746 5.9716 3.09809 6.44367L4.62876 8.58007L4.9104 8.97346L4.68999 9.39711C4.38385 9.99627 4.1267 10.6438 3.93077 11.3277L3.8022 11.7695L3.34912 11.8785L0.918405 12.4655C0.373485 12.5987 0 13.0768 0 13.6276V15.6066C0 16.1937 0.422466 16.6839 1.00412 16.7807L3.33687 17.1741L3.82669 17.2528L3.96751 17.7188C4.19405 18.445 4.48794 19.1471 4.84305 19.7947L5.06347 20.2002L4.81856 20.5936L3.37361 22.9357C3.08584 23.4017 3.15931 24.007 3.55117 24.4003L4.96551 25.7984C5.19205 26.0223 5.49818 26.1494 5.82269 26.1494C6.07372 26.1494 6.3125 26.0707 6.52067 25.9315L8.66362 24.4246L9.06772 24.1401L9.50243 24.3701C10.1269 24.703 10.7943 24.9692 11.4862 25.175L11.927 25.3082L12.0311 25.75L12.6066 28.08C12.7352 28.6126 13.2189 28.9879 13.7761 28.9879H15.7782C16.366 28.9879 16.868 28.5703 16.966 28.0014L17.3272 25.8831L17.413 25.3868L17.9028 25.2537C18.6742 25.0358 19.4028 24.7574 20.058 24.4185L20.4927 24.1946L20.8968 24.479L22.4152 25.5442C22.6234 25.6894 22.8622 25.7621 23.1132 25.7621C23.4316 25.7621 23.7377 25.641 23.9642 25.4171L25.3786 24.013C25.7766 23.6196 25.8439 23.0205 25.5561 22.5484L24.5888 20.9869L24.3377 20.5815L24.5826 20.1699C25.0541 19.3831 25.4276 18.5358 25.6908 17.6643L25.8378 17.1923L26.3276 17.1075L28.3175 16.7686C28.8991 16.6718 29.3216 16.1755 29.3216 15.5945V13.6154C29.3277 13.0647 28.9542 12.5866 28.4093 12.4595Z" fill="#1BA2D9"/>
</svg>
