<svg width="26" height="26" viewBox="0 0 26 26" fill="none" xmlns="http://www.w3.org/2000/svg">
<path d="M21.8867 0H4.11328C1.84133 0 0 1.84133 0 4.11328V21.8867C0 24.1587 1.84133 26 4.11328 26H21.8867C24.1587 26 26 24.1587 26 21.8867V4.11328C26 1.84133 24.1587 0 21.8867 0ZM11.1825 18.3056C10.3599 18.3031 9.5357 18.3264 8.71457 18.2858C7.49937 18.2284 6.53707 17.2392 6.5132 16.023C6.48781 15.015 6.50813 14.0156 6.50813 13H6.50305C6.50305 12.0352 6.51422 11.0789 6.50051 10.1202C6.48121 8.80902 7.4882 7.90359 8.40582 7.74363C8.60336 7.71012 8.80344 7.69336 9.00352 7.69285C9.79773 7.68727 10.592 7.6893 11.3862 7.69285C11.731 7.69285 11.795 7.75734 11.8102 8.1052C11.8366 8.71457 11.7995 8.75215 11.2008 8.75215C10.4711 8.75215 9.74137 8.75215 9.01113 8.75215C8.11637 8.75215 7.56133 9.30211 7.5598 10.1954C7.55625 12.0626 7.55625 13.9303 7.5598 15.798C7.5598 16.6938 8.11332 17.2428 9.00656 17.2453C9.80078 17.2453 10.595 17.2453 11.3892 17.2453C11.7528 17.2453 11.7955 17.2885 11.8102 17.6485C11.8361 18.268 11.8 18.3077 11.1825 18.3056ZM19.2918 13.422C17.8273 14.8911 16.3607 16.3582 14.8926 17.8242C14.7169 17.9999 14.5128 18.0929 14.2726 17.9959C14.0324 17.8989 13.9212 17.6912 13.9222 17.4296C13.9252 16.7502 13.9141 16.0707 13.9141 15.3913V15.1328H13.6475C12.5602 15.1328 11.473 15.1267 10.3858 15.1257C9.8673 15.1257 9.68754 14.9429 9.68703 14.428C9.68703 13.4768 9.68703 12.5247 9.68703 11.5725C9.68703 11.0596 9.86832 10.8743 10.3873 10.8738C11.4745 10.8738 12.5618 10.8672 13.649 10.8672H13.9207C13.9252 10.7656 13.9313 10.6976 13.9313 10.6214C13.9313 9.93484 13.9278 9.25031 13.9313 8.56426C13.9344 8.15801 14.1923 7.90969 14.5437 7.98027C14.6682 8.00973 14.7819 8.0727 14.8723 8.16309C16.3485 9.63016 17.8212 11.1013 19.2903 12.576C19.5696 12.8532 19.5691 13.1442 19.2918 13.422Z" fill="#1BA2D9"/>
</svg>
