<svg width="411" height="524" viewBox="0 0 411 524" fill="none" xmlns="http://www.w3.org/2000/svg">
<g clip-path="url(#clip0)">
<g clip-path="url(#clip1)">
<path d="M156.171 344.503C156.171 344.503 142.509 379.499 142.267 408.461H265.71C265.71 408.461 253.015 380.706 262.688 338.349L156.171 344.503Z" fill="#874F2A"/>
<path d="M389.758 526H21.2418C18.461 508.743 42.2792 435.493 42.2792 435.493C46.7526 421.856 56.0623 421.132 56.0623 421.132L90.2782 414.254L108.172 410.633L160.524 400.135L167.294 367.069H243.585L250.356 400.135L354.817 421.132C354.817 421.132 364.247 421.856 368.6 435.493C368.721 435.493 392.539 508.743 389.758 526Z" fill="#FBC994"/>
<path d="M184.704 439.113C184.704 439.113 183.012 439.234 182.045 437.424C182.045 437.424 182.045 437.303 181.924 437.182C181.198 435.976 176.846 430.183 152.786 424.27H152.665C142.025 421.736 127.638 419.202 108.051 417.03C108.051 417.03 176.362 410.513 188.453 434.045C188.573 433.924 189.903 438.269 184.704 439.113Z" fill="#EFBE8A"/>
<path d="M223.273 439.113C223.273 439.113 224.966 439.234 225.933 437.424C225.933 437.424 225.933 437.303 226.054 437.182C226.779 435.976 231.132 430.183 255.192 424.27H255.313C265.952 421.736 280.34 419.202 299.926 417.03C299.926 417.03 231.615 410.513 219.525 434.045C219.404 433.924 218.195 438.269 223.273 439.113Z" fill="#EFBE8A"/>
<path d="M172.493 365.259H243.585C243.585 365.259 228.109 400.376 209.732 400.376C209.853 400.497 191.959 402.548 172.493 365.259Z" fill="#EFBE8A"/>
<path d="M324.591 260.754C324.349 257.496 323.744 254.841 322.777 252.669C322.777 252.669 322.777 252.669 322.777 252.548C322.294 250.979 317.941 236.257 303.795 241.808C303.795 241.808 303.553 242.049 302.949 242.29C300.531 243.497 293.035 245.911 288.32 235.533C288.078 235.171 287.957 234.688 287.715 234.205C286.143 230.585 284.451 227.206 282.879 224.068C281.186 223.706 279.373 223.344 277.68 223.103C278.526 236.015 273.69 247.842 273.69 247.842C275.02 239.274 271.756 230.585 265.59 222.017C244.069 221.534 227.384 227.809 227.384 227.809C223.878 223.344 230.285 217.793 230.285 217.793C242.255 214.776 252.411 214.656 260.512 215.742C230.527 182.073 160.886 152.99 160.886 152.99C158.226 184.607 125.824 223.344 108.656 241.928C108.051 241.808 107.568 241.687 106.963 241.566V241.687C106.963 241.687 87.8601 238.67 86.1675 260.633C86.1675 260.633 83.6285 290.32 103.336 299.008C103.336 299.008 112.887 302.387 116.877 296.836C116.877 296.836 133.683 360.674 189.903 377.448C189.903 377.448 190.629 377.689 191.959 378.051C195.586 379.016 203.686 380.706 212.271 379.62C215.293 379.016 218.074 378.292 220.855 377.448C277.075 360.674 293.881 296.836 293.881 296.836C297.871 302.387 307.422 299.008 307.422 299.008C327.251 290.44 324.591 260.754 324.591 260.754ZM109.744 272.459C108.535 272.339 108.535 267.512 108.535 267.512C108.535 264.254 103.699 265.943 103.699 265.943C102.127 265.34 103.578 264.254 103.578 264.254C110.832 251.945 103.578 248.807 103.578 248.807C97.6534 246.755 92.9381 255.323 92.5754 255.806C94.5099 248.083 99.9506 246.755 103.336 246.755H103.457C103.94 246.755 105.996 246.876 107.205 248.324C107.326 248.566 107.447 248.686 107.568 248.928C107.568 248.928 107.568 248.928 107.568 249.048C110.59 254.237 107.205 262.323 107.205 262.323C110.59 263.409 110.59 267.512 110.59 267.753C111.195 272.701 109.744 272.459 109.744 272.459ZM183.495 227.93C183.495 227.93 156.897 217.793 127.275 224.31C127.275 224.31 146.741 209.346 180.594 217.914C180.715 217.914 187.123 223.344 183.495 227.93ZM204.049 308.18C198.609 308.18 191.596 298.888 191.233 298.284C195.102 301.06 199.818 301.663 204.049 301.422C208.281 301.663 212.996 301.06 216.865 298.284C216.381 298.888 209.49 308.18 204.049 308.18ZM310.566 254.237C310.566 254.237 303.312 257.375 310.566 269.684C310.566 269.684 312.017 270.77 310.445 271.373C310.445 271.373 305.488 269.563 305.609 272.942C305.609 272.942 305.73 277.769 304.4 277.89C304.4 277.89 302.949 278.131 303.433 273.063C303.433 272.822 303.433 268.719 306.818 267.632C306.818 267.632 303.433 259.547 306.455 254.358C306.455 254.358 306.455 254.237 306.576 254.237C306.697 253.996 306.818 253.755 306.939 253.634C308.148 252.307 310.082 252.065 310.687 252.065H310.808C314.072 252.186 319.634 253.513 321.568 261.116C321.205 260.754 316.49 252.186 310.566 254.237Z" fill="#FBC994"/>
<path d="M277.801 223.103C278.647 236.016 273.811 247.842 273.811 247.842C275.141 239.274 271.877 230.585 265.71 222.017C269.579 222.258 273.69 222.5 277.801 223.103Z" fill="#FBC994"/>
<path d="M303.795 241.808C303.795 241.808 303.553 242.049 302.949 242.291C300.531 243.497 293.035 245.911 288.319 235.533C288.078 235.171 287.957 234.688 287.715 234.205C286.143 230.585 284.451 227.206 282.879 224.069C283.121 224.069 283.362 224.189 283.604 224.189C283.604 224.189 283.242 223.948 282.516 223.465C281.549 222.862 279.856 221.776 277.438 220.69C273.569 218.879 267.887 216.828 260.512 215.863C230.527 182.194 160.886 153.111 160.886 153.111C158.226 184.728 125.824 223.465 108.656 242.049C108.051 241.929 107.568 241.808 106.963 241.687L111.678 124.27H299.443L303.795 241.808Z" fill="#FBC994"/>
<path d="M109.744 272.46C108.535 272.339 108.535 267.512 108.535 267.512C108.535 264.254 103.699 265.943 103.699 265.943C102.127 265.34 103.578 264.254 103.578 264.254C110.832 251.945 103.578 248.807 103.578 248.807C97.6534 246.756 92.9382 255.324 92.5754 255.807C94.5099 248.083 99.9506 246.756 103.336 246.756H103.457C103.94 246.756 105.996 246.877 107.205 248.325C107.326 248.566 107.447 248.687 107.568 248.928C107.568 248.928 107.568 248.928 107.568 249.049C110.59 254.238 107.205 262.323 107.205 262.323C110.59 263.409 110.59 267.512 110.59 267.753C111.195 272.701 109.744 272.46 109.744 272.46Z" fill="#EFBE8A"/>
<path d="M321.568 261.237C321.326 260.754 316.49 252.307 310.566 254.238C310.566 254.238 303.312 257.375 310.566 269.684C310.566 269.684 312.017 270.77 310.445 271.374C310.445 271.374 305.488 269.563 305.609 272.942C305.609 272.942 305.73 277.769 304.4 277.89C304.4 277.89 302.949 278.131 303.433 273.063C303.433 272.822 303.433 268.719 306.818 267.633C306.818 267.633 303.433 259.547 306.455 254.358C306.455 254.358 306.455 254.238 306.576 254.238C306.697 253.996 306.818 253.755 306.939 253.634C308.148 252.307 310.082 252.065 310.687 252.065H310.808C314.072 252.186 319.634 253.514 321.568 261.237Z" fill="#EFBE8A"/>
<path d="M216.865 298.284C216.382 298.888 209.49 308.18 204.049 308.18C198.609 308.18 191.596 298.888 191.233 298.284C195.102 301.06 199.818 301.663 204.049 301.422C208.281 301.784 212.996 301.06 216.865 298.284Z" fill="#EFBE8A"/>
<path d="M183.495 227.93C183.495 227.93 156.896 217.793 127.275 224.31C127.275 224.31 146.74 209.346 180.594 217.914C180.715 217.914 187.123 223.344 183.495 227.93Z" fill="#874F2A"/>
<path d="M283.725 224.189C283.483 224.189 283.241 224.069 283 224.069C281.307 223.707 279.493 223.345 277.801 223.103C273.69 222.5 269.579 222.138 265.71 222.017C244.189 221.535 227.505 227.81 227.505 227.81C223.998 223.345 230.406 217.794 230.406 217.794C242.376 214.777 252.532 214.656 260.632 215.742C268.008 216.828 273.69 218.759 277.559 220.569C279.856 221.655 281.67 222.621 282.637 223.345C283.362 223.948 283.725 224.189 283.725 224.189Z" fill="#874F2A"/>
<path d="M322.898 252.669C322.414 250.979 318.062 236.257 303.916 241.808C303.916 241.808 303.674 242.049 303.07 242.291C300.652 243.497 293.156 245.911 288.44 235.533C288.319 235.05 288.078 234.688 287.957 234.205C286.385 230.585 284.692 227.206 283.121 224.068C283 223.827 282.879 223.706 282.758 223.465C278.647 215.621 274.778 210.07 274.295 209.346C276.229 212.966 277.196 216.828 277.68 220.689C277.801 221.534 277.801 222.258 277.922 223.103C278.768 236.015 273.932 247.842 273.932 247.842C275.262 239.274 271.997 230.585 265.831 222.017C264.26 219.965 262.688 217.793 260.753 215.742C230.769 182.073 161.128 152.99 161.128 152.99C158.468 184.607 126.066 223.344 108.897 241.928C108.293 241.808 107.809 241.687 107.205 241.566C102.49 240.722 98.6206 242.049 96.0816 243.497C61.503 99.2894 143.96 91.8075 143.96 91.8075C213.722 33.8831 294.244 104.479 294.244 104.479C333.417 141.888 326.646 223.827 322.898 252.669Z" fill="#874F2A"/>
<path d="M272.239 190.882C272.239 190.882 235.242 142.371 213.117 130.303C213.117 130.303 207.435 128.372 206.709 125.597C206.709 125.597 206.346 121.494 212.996 121.614C212.996 121.614 230.285 121.856 235.605 126.803C235.605 126.803 240.2 130.786 242.255 128.734C242.255 128.734 244.552 127.769 242.134 125.838L240.441 124.149C240.441 124.149 239.716 123.304 240.079 122.821C240.079 122.821 240.562 122.097 241.288 122.942C241.288 122.942 248.542 129.941 255.917 128.01C255.917 128.01 234.88 112.202 218.92 108.823C218.92 108.823 292.551 112.443 308.39 162.765C308.39 162.765 308.994 163.851 308.269 164.092C308.269 164.092 307.543 164.696 306.818 163.851C306.818 163.851 296.178 150.697 288.924 147.922C288.924 147.922 284.692 145.508 283.121 147.198C283.121 147.198 281.67 148.767 285.055 152.387C285.055 152.387 303.312 176.281 304.4 187.745C304.4 187.745 269.7 150.456 257.61 145.629C257.61 145.629 250.235 138.268 244.673 141.405C244.673 141.405 240.804 145.026 245.278 151.542C245.398 151.421 266.557 174.833 272.239 190.882Z" fill="#96674B"/>
<path d="M156.171 426.322C145.652 424.149 131.265 421.736 111.557 419.081C131.144 421.253 145.531 423.787 156.171 426.322Z" fill="#EFBE8A"/>
<path d="M328.943 526H87.1348C90.0365 504.158 90.2783 434.045 90.2783 414.254L108.172 410.634C109.26 508.502 208.039 508.864 208.039 508.864C208.039 508.864 306.818 508.502 307.906 410.634L325.8 414.254C325.8 434.045 326.042 504.158 328.943 526Z" fill="#345EAB"/>
<path d="M52.1933 216.345C52.1933 216.345 17.8565 292.492 80.2431 359.226C80.2431 359.226 73.7143 373.103 58.6013 367.552C58.6013 367.552 3.9525 287.786 48.2035 215.983C48.2035 215.983 38.4102 221.293 29.3424 216.828C29.3424 216.828 53.4024 210.312 61.1402 199.451C61.1402 199.451 58.1176 223.465 64.2838 236.257C64.042 236.136 52.9188 227.568 52.1933 216.345Z" fill="#345EAB"/>
<path d="M358.807 216.345C358.807 216.345 393.144 292.492 330.757 359.226C330.757 359.226 337.286 373.103 352.399 367.552C352.399 367.552 407.048 287.786 362.797 215.983C362.797 215.983 372.59 221.293 381.658 216.828C381.658 216.828 357.598 210.312 349.86 199.451C349.86 199.451 352.882 223.465 346.716 236.257C346.958 236.136 358.081 227.568 358.807 216.345Z" fill="#345EAB"/>
<path d="M303.07 242.17C300.652 243.377 293.156 245.791 288.44 235.412C288.199 235.05 288.078 234.568 287.836 234.085L303.07 242.17Z" fill="#874F2A"/>
</g>
</g>
<defs>
<clipPath id="clip0">
<rect width="411" height="524" fill="white"/>
</clipPath>
<clipPath id="clip1">
<rect width="369" height="457" fill="white" transform="translate(21 69)"/>
</clipPath>
</defs>
</svg>
