<svg width="35" height="40" viewBox="0 0 35 40" fill="none" xmlns="http://www.w3.org/2000/svg">
<path d="M17.3963 4.20361C7.78333 4.20361 0 12.2138 0 22.107C0 32.0001 7.78333 40.0001 17.3963 40.0001C26.9994 40.0001 34.7926 31.9899 34.7926 22.0968C34.7926 12.2036 26.9994 4.20361 17.3963 4.20361ZM17.3963 36.4683C9.69208 36.4683 3.44168 30.0357 3.44168 22.107C3.43179 14.168 9.68219 7.73543 17.3963 7.73543C25.1005 7.73543 31.3509 14.168 31.3509 22.107C31.3509 30.0357 25.1005 36.4683 17.3963 36.4683Z" fill="#27AAE1"/>
<path d="M17.3963 23.1654C17.9644 23.1654 18.4249 22.6915 18.4249 22.1069C18.4249 21.5223 17.9644 21.0483 17.3963 21.0483C16.8283 21.0483 16.3678 21.5223 16.3678 22.1069C16.3678 22.6915 16.8283 23.1654 17.3963 23.1654Z" fill="#27AAE1"/>
<path d="M17.3962 12.7939C17.0995 12.7939 16.8622 13.0382 16.8622 13.3436V21.537C16.8622 21.8423 17.0995 22.0866 17.3962 22.0866C17.6929 22.0866 17.9303 21.8423 17.9303 21.537V13.3436C17.9303 13.0484 17.6929 12.7939 17.3962 12.7939Z" fill="#27AAE1"/>
<path d="M18.415 1.27246H16.3678V6.08672H18.415V1.27246Z" fill="#27AAE1"/>
<path d="M14.4293 1.17049C14.4293 1.82189 14.9436 2.34097 15.5667 2.34097H19.2061C19.8391 2.34097 20.3435 1.81171 20.3435 1.17049C20.3435 0.519085 19.8292 0 19.2061 0H15.5667C14.9436 0 14.4293 0.529263 14.4293 1.17049Z" fill="#27AAE1"/>
<path d="M17.3963 34.6361C14.637 34.6361 11.9371 33.659 9.78109 31.888C7.66465 30.1475 6.16139 27.6946 5.53833 24.9974L6.30974 24.8142C7.53608 30.1475 12.1349 33.8626 17.4754 33.832C23.7456 33.7913 28.829 28.4682 28.7894 22.0254C28.74 15.603 23.6467 10.3918 17.3963 10.3918C14.4788 10.3918 11.7294 11.5114 9.61296 13.5572C9.45472 13.7099 9.21736 13.6997 9.06902 13.547C8.91078 13.3842 8.91078 13.1195 9.07891 12.9567C11.3041 10.8091 14.1821 9.61824 17.2479 9.57753C23.8742 9.4961 29.5015 15.145 29.5806 21.9643C29.6597 28.9364 24.161 34.6361 17.3963 34.6361Z" fill="#26A9E1"/>
<path d="M4.87565 26.1884L6.04266 25.4759L7.35801 25.8424C7.52614 25.8933 7.6646 25.6999 7.57559 25.5472L5.83497 22.5141C5.74596 22.3614 5.5185 22.392 5.47894 22.565L4.57896 25.9645C4.5394 26.1375 4.72731 26.28 4.87565 26.1884Z" fill="#26A9E1"/>
</svg>
