<svg width="85" height="85" viewBox="0 0 85 85" fill="none" xmlns="http://www.w3.org/2000/svg">
<path d="M84 42.5C84 51.5014 81.1301 59.8365 76.2611 66.6343C70.983 74.0108 63.3435 79.5811 54.4532 82.2523C50.6714 83.3863 46.6558 84 42.5 84C38.3383 84 34.3227 83.3863 30.5351 82.2465C21.6448 79.5753 14.0111 74.0049 8.73303 66.6284C3.86408 59.8306 1 51.5014 1 42.5C1 19.5815 19.5756 1 42.5 1C65.4185 1 84 19.5815 84 42.5Z" fill="#1BA2D9" stroke="#1BA2D9" stroke-width="2" stroke-miterlimit="10"/>
<path d="M84 42.5C84 51.5014 81.1301 59.8365 76.2611 66.6343C70.9772 59.8832 57.8024 55.0669 42.4942 55.0669C27.1918 55.0669 14.0228 59.8774 8.73303 66.6284C3.86408 59.8306 1 51.5014 1 42.5C1 19.5815 19.5756 1 42.5 1C65.4185 1 84 19.5815 84 42.5Z" fill="#1BA2D9"/>
<path d="M60.2633 24.3508C59.5677 20.8379 57.8376 17.6056 55.3067 15.0746C52.7699 12.5379 49.5434 10.8136 46.0247 10.118C42.5118 9.41661 38.8703 9.779 35.5562 11.1467C32.2479 12.5203 29.4189 14.8408 27.4257 17.8218C25.4384 20.8028 24.3746 24.304 24.3746 27.887C24.3746 32.6975 26.2859 37.3034 29.6819 40.6994C33.0837 44.0954 37.6896 46.0067 42.4943 46.0067C46.0832 46.0067 49.5844 44.9429 52.5653 42.9498C55.5405 40.9625 57.8668 38.1276 59.2346 34.8193C60.6082 31.511 60.9647 27.8637 60.2633 24.3508Z" fill="white"/>
<path d="M76.2611 66.6343C70.983 74.0108 63.3435 79.5811 54.4532 82.2523C50.6714 83.3863 46.6558 84 42.5 84C38.3383 84 34.3228 83.3863 30.5351 82.2465C21.6448 79.5753 14.0111 74.0049 8.73303 66.6284C14.0228 59.8774 27.1918 55.0669 42.4942 55.0669C57.8024 55.0669 70.9772 59.8832 76.2611 66.6343Z" fill="white"/>
</svg>
